
<svg width="489px" height="246px" viewBox="0 0 489 246" version="1.1" xmlns="http://www.w3.org/2000/svg" xmlns:xlink="http://www.w3.org/1999/xlink">
    <defs>
        <linearGradient x1="50%" y1="0%" x2="50%" y2="97.8188223%" id="linearGradient-1">
            <stop stop-color="#FF107F" offset="0%"></stop>
            <stop stop-color="#FF493E" offset="100%"></stop>
        </linearGradient>
        <path d="M55,110 C24.6243388,110 0,85.3756612 0,55 C0,24.6243388 24.6243388,0 55,0 C85.3756612,0 110,24.6243388 110,55 C110,85.3756612 85.3756612,110 55,110 Z M38,34 C36.3431458,34 35,35.3431458 35,37 L35,41 C35,42.6568542 36.3431458,44 38,44 L40,44 C41.6568542,44 43,45.3431458 43,47 L43,73 C43,74.6568542 44.3431458,76 46,76 L50,76 C51.6568542,76 53,74.6568542 53,73 L53,47 C53,45.3431458 54.3431458,44 56,44 L72,44 C73.6568542,44 75,42.6568542 75,41 L75,37 C75,35.3431458 73.6568542,34 72,34 L38,34 Z M62,66 C60.3431458,66 59,67.3431458 59,69 L59,73 C59,74.6568542 60.3431458,76 62,76 L66,76 C67.6568542,76 69,74.6568542 69,73 L69,69 C69,67.3431458 67.6568542,66 66,66 L62,66 Z M62,50 C60.3431458,50 59,51.3431458 59,53 L59,57 C59,58.6568542 60.3431458,60 62,60 L66,60 C67.6568542,60 69,58.6568542 69,57 L69,53 C69,51.3431458 67.6568542,50 66,50 L62,50 Z" id="path-2"></path>
    </defs>
    <g id="GitHub" stroke="none" stroke-width="1" fill="none" fill-rule="evenodd">
        <g id="Banner" transform="translate(-256.000000, -93.000000)">
            <g transform="translate(254.000000, 93.000000)" id="Logotype">
                <g>
                    <path d="M2.778,225.008 L5.438,225.008 L5.438,245 L2.778,245 L2.778,225.008 Z M9.526,230.524 L11.766,230.524 L11.766,232.82 L11.822,232.82 C12.8113383,231.065325 14.3793226,230.188 16.526,230.188 C17.4780048,230.188 18.2713302,230.318665 18.906,230.58 C19.5406698,230.841335 20.053998,231.205331 20.446,231.672 C20.838002,232.138669 21.1133325,232.693997 21.272,233.338 C21.4306675,233.982003 21.51,234.695996 21.51,235.48 L21.51,245 L19.13,245 L19.13,235.2 C19.13,234.303996 18.8686693,233.594669 18.346,233.072 C17.8233307,232.549331 17.1046712,232.288 16.19,232.288 C15.4619964,232.288 14.8320027,232.399999 14.3,232.624 C13.7679973,232.848001 13.3246684,233.165331 12.97,233.576 C12.6153316,233.986669 12.3493342,234.467331 12.172,235.018 C11.9946658,235.568669 11.906,236.170663 11.906,236.824 L11.906,245 L9.526,245 L9.526,230.524 Z M28.398,230.524 L31.282,230.524 L31.282,232.624 L28.398,232.624 L28.398,241.612 C28.398,241.892001 28.4213331,242.115999 28.468,242.284 C28.5146669,242.452001 28.6033327,242.582666 28.734,242.676 C28.8646673,242.769334 29.0466655,242.83 29.28,242.858 C29.5133345,242.886 29.8166648,242.9 30.19,242.9 L31.282,242.9 L31.282,245 L29.462,245 C28.8459969,245 28.3186689,244.958 27.88,244.874 C27.4413311,244.79 27.086668,244.636001 26.816,244.412 C26.545332,244.187999 26.3446673,243.870669 26.214,243.46 C26.0833327,243.049331 26.018,242.508003 26.018,241.836 L26.018,232.624 L23.554,232.624 L23.554,230.524 L26.018,230.524 L26.018,226.184 L28.398,226.184 L28.398,230.524 Z M43.966,236.376 C43.9286665,235.815997 43.8026677,235.284003 43.588,234.78 C43.3733323,234.275997 43.0840018,233.842002 42.72,233.478 C42.3559982,233.113998 41.9266691,232.824668 41.432,232.61 C40.9373309,232.395332 40.3913363,232.288 39.794,232.288 C39.1779969,232.288 38.6226691,232.395332 38.128,232.61 C37.6333309,232.824668 37.2086684,233.118665 36.854,233.492 C36.4993316,233.865335 36.2193344,234.299331 36.014,234.794 C35.8086656,235.288669 35.6873335,235.815997 35.65,236.376 L43.966,236.376 Z M46.262,240.408 C45.9446651,242.032008 45.2446721,243.254663 44.162,244.076 C43.0793279,244.897337 41.7166749,245.308 40.074,245.308 C38.9166609,245.308 37.9133376,245.121335 37.064,244.748 C36.2146624,244.374665 35.5006696,243.852003 34.922,243.18 C34.3433304,242.507997 33.9093348,241.705338 33.62,240.772 C33.3306652,239.838662 33.1673335,238.821339 33.13,237.72 C33.13,236.618661 33.2979983,235.610671 33.634,234.696 C33.9700017,233.781329 34.4413303,232.988003 35.048,232.316 C35.6546697,231.643997 36.3733292,231.121335 37.204,230.748 C38.0346708,230.374665 38.9446617,230.188 39.934,230.188 C41.2220064,230.188 42.2906624,230.453997 43.14,230.986 C43.9893376,231.518003 44.6706641,232.194663 45.184,233.016 C45.6973359,233.837337 46.051999,234.733328 46.248,235.704 C46.444001,236.674672 46.5233335,237.598662 46.486,238.476 L35.65,238.476 C35.6313332,239.11067 35.7059992,239.712664 35.874,240.282 C36.0420008,240.851336 36.3126648,241.355331 36.686,241.794 C37.0593352,242.232669 37.5353304,242.582665 38.114,242.844 C38.6926696,243.105335 39.3739961,243.236 40.158,243.236 C41.166005,243.236 41.9919968,243.002669 42.636,242.536 C43.2800032,242.069331 43.7046656,241.360005 43.91,240.408 L46.262,240.408 Z M48.866,230.524 L51.106,230.524 L51.106,233.576 L51.162,233.576 C51.7406696,232.399994 52.4499958,231.532003 53.29,230.972 C54.1300042,230.411997 55.1939936,230.150666 56.482,230.188 L56.482,232.708 C55.5299952,232.708 54.7180034,232.838665 54.046,233.1 C53.3739966,233.361335 52.8326687,233.743997 52.422,234.248 C52.0113313,234.752003 51.7126676,235.36333 51.526,236.082 C51.3393324,236.80067 51.246,237.626662 51.246,238.56 L51.246,245 L48.866,245 L48.866,230.524 Z M71.098,244.944 C70.6873313,245.186668 70.1180036,245.308 69.39,245.308 C68.7739969,245.308 68.2840018,245.135335 67.92,244.79 C67.5559982,244.444665 67.374,243.880004 67.374,243.096 C66.7206634,243.880004 65.9600043,244.444665 65.092,244.79 C64.2239957,245.135335 63.286005,245.308 62.278,245.308 C61.6246634,245.308 61.0040029,245.233334 60.416,245.084 C59.8279971,244.934666 59.3193355,244.701335 58.89,244.384 C58.4606645,244.066665 58.1200013,243.651336 57.868,243.138 C57.6159987,242.624664 57.49,242.004004 57.49,241.276 C57.49,240.454663 57.6299986,239.782669 57.91,239.26 C58.1900014,238.737331 58.5586644,238.312668 59.016,237.986 C59.4733356,237.659332 59.9959971,237.412001 60.584,237.244 C61.1720029,237.075999 61.7739969,236.936001 62.39,236.824 C63.0433366,236.693333 63.6639971,236.595334 64.252,236.53 C64.8400029,236.464666 65.3579978,236.371334 65.806,236.25 C66.2540022,236.128666 66.6086654,235.951335 66.87,235.718 C67.1313346,235.484666 67.262,235.144002 67.262,234.696 C67.262,234.173331 67.164001,233.753335 66.968,233.436 C66.771999,233.118665 66.5200015,232.876001 66.212,232.708 C65.9039985,232.539999 65.5586686,232.428 65.176,232.372 C64.7933314,232.316 64.4153352,232.288 64.042,232.288 C63.033995,232.288 62.1940034,232.479331 61.522,232.862 C60.8499966,233.244669 60.4860003,233.967995 60.43,235.032 L58.05,235.032 C58.0873335,234.135996 58.2739983,233.380003 58.61,232.764 C58.9460017,232.147997 59.3939972,231.648669 59.954,231.266 C60.5140028,230.883331 61.1533297,230.608001 61.872,230.44 C62.5906703,230.271999 63.3606626,230.188 64.182,230.188 C64.8353366,230.188 65.4839968,230.234666 66.128,230.328 C66.7720032,230.421334 67.3553307,230.612665 67.878,230.902 C68.4006693,231.191335 68.8206651,231.597331 69.138,232.12 C69.4553349,232.642669 69.614,233.323996 69.614,234.164 L69.614,241.612 C69.614,242.172003 69.6466663,242.582665 69.712,242.844 C69.7773337,243.105335 69.9966648,243.236 70.37,243.236 C70.5753344,243.236 70.8179986,243.189334 71.098,243.096 L71.098,244.944 Z M67.234,237.524 C66.9353318,237.748001 66.5433358,237.911333 66.058,238.014 C65.5726642,238.116667 65.0640027,238.200666 64.532,238.266 C63.9999973,238.331334 63.463336,238.406 62.922,238.49 C62.380664,238.574 61.8953355,238.709332 61.466,238.896 C61.0366645,239.082668 60.686668,239.348665 60.416,239.694 C60.145332,240.039335 60.01,240.510664 60.01,241.108 C60.01,241.500002 60.0893325,241.831332 60.248,242.102 C60.4066675,242.372668 60.6119987,242.591999 60.864,242.76 C61.1160013,242.928001 61.4099983,243.049333 61.746,243.124 C62.0820017,243.198667 62.4366648,243.236 62.81,243.236 C63.5940039,243.236 64.2659972,243.128668 64.826,242.914 C65.3860028,242.699332 65.8433316,242.428668 66.198,242.102 C66.5526684,241.775332 66.8139992,241.420669 66.982,241.038 C67.1500008,240.655331 67.234,240.296002 67.234,239.96 L67.234,237.524 Z M83.138,235.172 C82.9513324,234.257329 82.5593363,233.548003 81.962,233.044 C81.3646637,232.539997 80.562005,232.288 79.554,232.288 C78.695329,232.288 77.9766696,232.446665 77.398,232.764 C76.8193304,233.081335 76.3573351,233.501331 76.012,234.024 C75.6666649,234.546669 75.4193341,235.148663 75.27,235.83 C75.1206659,236.511337 75.046,237.215996 75.046,237.944 C75.046,238.616003 75.1253325,239.26933 75.284,239.904 C75.4426675,240.53867 75.6899983,241.103331 76.026,241.598 C76.3620017,242.092669 76.800664,242.489332 77.342,242.788 C77.883336,243.086668 78.5273296,243.236 79.274,243.236 C80.4500059,243.236 81.36933,242.928003 82.032,242.312 C82.69467,241.695997 83.1006659,240.828006 83.25,239.708 L85.686,239.708 C85.4246654,241.500009 84.7573387,242.881328 83.684,243.852 C82.6106613,244.822672 81.1500092,245.308 79.302,245.308 C78.2006612,245.308 77.2253376,245.130668 76.376,244.776 C75.5266624,244.421332 74.8173362,243.917337 74.248,243.264 C73.6786638,242.610663 73.2493348,241.831338 72.96,240.926 C72.6706652,240.020662 72.526,239.026672 72.526,237.944 C72.526,236.861328 72.6659986,235.848671 72.946,234.906 C73.2260014,233.963329 73.6506638,233.142003 74.22,232.442 C74.7893362,231.741996 75.503329,231.191335 76.362,230.79 C77.220671,230.388665 78.2193276,230.188 79.358,230.188 C80.1793374,230.188 80.9493297,230.285999 81.668,230.482 C82.3866703,230.678001 83.0213306,230.981331 83.572,231.392 C84.1226694,231.802669 84.5753316,232.320664 84.93,232.946 C85.2846684,233.571336 85.5086662,234.313329 85.602,235.172 L83.138,235.172 Z M91.65,230.524 L94.534,230.524 L94.534,232.624 L91.65,232.624 L91.65,241.612 C91.65,241.892001 91.6733331,242.115999 91.72,242.284 C91.7666669,242.452001 91.8553327,242.582666 91.986,242.676 C92.1166673,242.769334 92.2986655,242.83 92.532,242.858 C92.7653345,242.886 93.0686648,242.9 93.442,242.9 L94.534,242.9 L94.534,245 L92.714,245 C92.0979969,245 91.5706689,244.958 91.132,244.874 C90.6933311,244.79 90.338668,244.636001 90.068,244.412 C89.797332,244.187999 89.5966673,243.870669 89.466,243.46 C89.3353327,243.049331 89.27,242.508003 89.27,241.836 L89.27,232.624 L86.806,232.624 L86.806,230.524 L89.27,230.524 L89.27,226.184 L91.65,226.184 L91.65,230.524 Z M99.686,227.92 L97.306,227.92 L97.306,225.008 L99.686,225.008 L99.686,227.92 Z M97.306,230.524 L99.686,230.524 L99.686,245 L97.306,245 L97.306,230.524 Z M109.906,245 L107.358,245 L101.982,230.524 L104.642,230.524 L108.702,242.592 L108.758,242.592 L112.706,230.524 L115.198,230.524 L109.906,245 Z M127.434,236.376 C127.396666,235.815997 127.270668,235.284003 127.056,234.78 C126.841332,234.275997 126.552002,233.842002 126.188,233.478 C125.823998,233.113998 125.394669,232.824668 124.9,232.61 C124.405331,232.395332 123.859336,232.288 123.262,232.288 C122.645997,232.288 122.090669,232.395332 121.596,232.61 C121.101331,232.824668 120.676668,233.118665 120.322,233.492 C119.967332,233.865335 119.687334,234.299331 119.482,234.794 C119.276666,235.288669 119.155334,235.815997 119.118,236.376 L127.434,236.376 Z M129.73,240.408 C129.412665,242.032008 128.712672,243.254663 127.63,244.076 C126.547328,244.897337 125.184675,245.308 123.542,245.308 C122.384661,245.308 121.381338,245.121335 120.532,244.748 C119.682662,244.374665 118.96867,243.852003 118.39,243.18 C117.81133,242.507997 117.377335,241.705338 117.088,240.772 C116.798665,239.838662 116.635334,238.821339 116.598,237.72 C116.598,236.618661 116.765998,235.610671 117.102,234.696 C117.438002,233.781329 117.90933,232.988003 118.516,232.316 C119.12267,231.643997 119.841329,231.121335 120.672,230.748 C121.502671,230.374665 122.412662,230.188 123.402,230.188 C124.690006,230.188 125.758662,230.453997 126.608,230.986 C127.457338,231.518003 128.138664,232.194663 128.652,233.016 C129.165336,233.837337 129.519999,234.733328 129.716,235.704 C129.912001,236.674672 129.991334,237.598662 129.954,238.476 L119.118,238.476 C119.099333,239.11067 119.173999,239.712664 119.342,240.282 C119.510001,240.851336 119.780665,241.355331 120.154,241.794 C120.527335,242.232669 121.00333,242.582665 121.582,242.844 C122.16067,243.105335 122.841996,243.236 123.626,243.236 C124.634005,243.236 125.459997,243.002669 126.104,242.536 C126.748003,242.069331 127.172666,241.360005 127.378,240.408 L129.73,240.408 Z M143.506,230.524 L146.39,230.524 L146.39,232.624 L143.506,232.624 L143.506,241.612 C143.506,241.892001 143.529333,242.115999 143.576,242.284 C143.622667,242.452001 143.711333,242.582666 143.842,242.676 C143.972667,242.769334 144.154665,242.83 144.388,242.858 C144.621334,242.886 144.924665,242.9 145.298,242.9 L146.39,242.9 L146.39,245 L144.57,245 C143.953997,245 143.426669,244.958 142.988,244.874 C142.549331,244.79 142.194668,244.636001 141.924,244.412 C141.653332,244.187999 141.452667,243.870669 141.322,243.46 C141.191333,243.049331 141.126,242.508003 141.126,241.836 L141.126,232.624 L138.662,232.624 L138.662,230.524 L141.126,230.524 L141.126,226.184 L143.506,226.184 L143.506,230.524 Z M148.938,230.524 L151.178,230.524 L151.178,233.576 L151.234,233.576 C151.81267,232.399994 152.521996,231.532003 153.362,230.972 C154.202004,230.411997 155.265994,230.150666 156.554,230.188 L156.554,232.708 C155.601995,232.708 154.790003,232.838665 154.118,233.1 C153.445997,233.361335 152.904669,233.743997 152.494,234.248 C152.083331,234.752003 151.784668,235.36333 151.598,236.082 C151.411332,236.80067 151.318,237.626662 151.318,238.56 L151.318,245 L148.938,245 L148.938,230.524 Z M171.17,244.944 C170.759331,245.186668 170.190004,245.308 169.462,245.308 C168.845997,245.308 168.356002,245.135335 167.992,244.79 C167.627998,244.444665 167.446,243.880004 167.446,243.096 C166.792663,243.880004 166.032004,244.444665 165.164,244.79 C164.295996,245.135335 163.358005,245.308 162.35,245.308 C161.696663,245.308 161.076003,245.233334 160.488,245.084 C159.899997,244.934666 159.391335,244.701335 158.962,244.384 C158.532665,244.066665 158.192001,243.651336 157.94,243.138 C157.687999,242.624664 157.562,242.004004 157.562,241.276 C157.562,240.454663 157.701999,239.782669 157.982,239.26 C158.262001,238.737331 158.630664,238.312668 159.088,237.986 C159.545336,237.659332 160.067997,237.412001 160.656,237.244 C161.244003,237.075999 161.845997,236.936001 162.462,236.824 C163.115337,236.693333 163.735997,236.595334 164.324,236.53 C164.912003,236.464666 165.429998,236.371334 165.878,236.25 C166.326002,236.128666 166.680665,235.951335 166.942,235.718 C167.203335,235.484666 167.334,235.144002 167.334,234.696 C167.334,234.173331 167.236001,233.753335 167.04,233.436 C166.843999,233.118665 166.592002,232.876001 166.284,232.708 C165.975998,232.539999 165.630669,232.428 165.248,232.372 C164.865331,232.316 164.487335,232.288 164.114,232.288 C163.105995,232.288 162.266003,232.479331 161.594,232.862 C160.921997,233.244669 160.558,233.967995 160.502,235.032 L158.122,235.032 C158.159334,234.135996 158.345998,233.380003 158.682,232.764 C159.018002,232.147997 159.465997,231.648669 160.026,231.266 C160.586003,230.883331 161.22533,230.608001 161.944,230.44 C162.66267,230.271999 163.432663,230.188 164.254,230.188 C164.907337,230.188 165.555997,230.234666 166.2,230.328 C166.844003,230.421334 167.427331,230.612665 167.95,230.902 C168.472669,231.191335 168.892665,231.597331 169.21,232.12 C169.527335,232.642669 169.686,233.323996 169.686,234.164 L169.686,241.612 C169.686,242.172003 169.718666,242.582665 169.784,242.844 C169.849334,243.105335 170.068665,243.236 170.442,243.236 C170.647334,243.236 170.889999,243.189334 171.17,243.096 L171.17,244.944 Z M167.306,237.524 C167.007332,237.748001 166.615336,237.911333 166.13,238.014 C165.644664,238.116667 165.136003,238.200666 164.604,238.266 C164.071997,238.331334 163.535336,238.406 162.994,238.49 C162.452664,238.574 161.967335,238.709332 161.538,238.896 C161.108665,239.082668 160.758668,239.348665 160.488,239.694 C160.217332,240.039335 160.082,240.510664 160.082,241.108 C160.082,241.500002 160.161333,241.831332 160.32,242.102 C160.478667,242.372668 160.683999,242.591999 160.936,242.76 C161.188001,242.928001 161.481998,243.049333 161.818,243.124 C162.154002,243.198667 162.508665,243.236 162.882,243.236 C163.666004,243.236 164.337997,243.128668 164.898,242.914 C165.458003,242.699332 165.915332,242.428668 166.27,242.102 C166.624668,241.775332 166.885999,241.420669 167.054,241.038 C167.222001,240.655331 167.306,240.296002 167.306,239.96 L167.306,237.524 Z M173.382,230.524 L175.622,230.524 L175.622,232.82 L175.678,232.82 C176.667338,231.065325 178.235323,230.188 180.382,230.188 C181.334005,230.188 182.12733,230.318665 182.762,230.58 C183.39667,230.841335 183.909998,231.205331 184.302,231.672 C184.694002,232.138669 184.969333,232.693997 185.128,233.338 C185.286667,233.982003 185.366,234.695996 185.366,235.48 L185.366,245 L182.986,245 L182.986,235.2 C182.986,234.303996 182.724669,233.594669 182.202,233.072 C181.679331,232.549331 180.960671,232.288 180.046,232.288 C179.317996,232.288 178.688003,232.399999 178.156,232.624 C177.623997,232.848001 177.180668,233.165331 176.826,233.576 C176.471332,233.986669 176.205334,234.467331 176.028,235.018 C175.850666,235.568669 175.762,236.170663 175.762,236.824 L175.762,245 L173.382,245 L173.382,230.524 Z M190.406,240.436 C190.424667,240.958669 190.545999,241.401998 190.77,241.766 C190.994001,242.130002 191.287998,242.419332 191.652,242.634 C192.016002,242.848668 192.426664,243.002666 192.884,243.096 C193.341336,243.189334 193.812664,243.236 194.298,243.236 C194.671335,243.236 195.063331,243.208 195.474,243.152 C195.884669,243.096 196.262665,242.993334 196.608,242.844 C196.953335,242.694666 197.237999,242.475335 197.462,242.186 C197.686001,241.896665 197.798,241.528002 197.798,241.08 C197.798,240.463997 197.564669,239.997335 197.098,239.68 C196.631331,239.362665 196.048003,239.106001 195.348,238.91 C194.647996,238.713999 193.887337,238.536667 193.066,238.378 C192.244663,238.219333 191.484003,237.995335 190.784,237.706 C190.083996,237.416665 189.500669,237.010669 189.034,236.488 C188.567331,235.965331 188.334,235.237338 188.334,234.304 C188.334,233.575996 188.497332,232.950669 188.824,232.428 C189.150668,231.905331 189.570664,231.480668 190.084,231.154 C190.597336,230.827332 191.175997,230.584667 191.82,230.426 C192.464003,230.267333 193.10333,230.188 193.738,230.188 C194.559337,230.188 195.31533,230.257999 196.006,230.398 C196.69667,230.538001 197.307997,230.780665 197.84,231.126 C198.372003,231.471335 198.796665,231.937997 199.114,232.526 C199.431335,233.114003 199.618,233.846662 199.674,234.724 L197.294,234.724 C197.256666,234.257331 197.135334,233.870002 196.93,233.562 C196.724666,233.253998 196.463335,233.006668 196.146,232.82 C195.828665,232.633332 195.478669,232.498 195.096,232.414 C194.713331,232.33 194.326002,232.288 193.934,232.288 C193.579332,232.288 193.220002,232.316 192.856,232.372 C192.491998,232.428 192.160668,232.525999 191.862,232.666 C191.563332,232.806001 191.320668,232.992665 191.134,233.226 C190.947332,233.459335 190.854,233.762665 190.854,234.136 C190.854,234.546669 190.998665,234.887332 191.288,235.158 C191.577335,235.428668 191.945998,235.652666 192.394,235.83 C192.842002,236.007334 193.345997,236.156666 193.906,236.278 C194.466003,236.399334 195.025997,236.525333 195.586,236.656 C196.183336,236.786667 196.766664,236.945332 197.336,237.132 C197.905336,237.318668 198.409331,237.565998 198.848,237.874 C199.286669,238.182002 199.641332,238.569331 199.912,239.036 C200.182668,239.502669 200.318,240.08133 200.318,240.772 C200.318,241.649338 200.136002,242.37733 199.772,242.956 C199.407998,243.53467 198.932003,244.001332 198.344,244.356 C197.755997,244.710668 197.093337,244.957999 196.356,245.098 C195.618663,245.238001 194.886004,245.308 194.158,245.308 C193.355329,245.308 192.590004,245.224001 191.862,245.056 C191.133996,244.887999 190.490003,244.612669 189.93,244.23 C189.369997,243.847331 188.922002,243.343336 188.586,242.718 C188.249998,242.092664 188.063334,241.332004 188.026,240.436 L190.406,240.436 Z M205.47,227.92 L203.09,227.92 L203.09,225.008 L205.47,225.008 L205.47,227.92 Z M203.09,230.524 L205.47,230.524 L205.47,245 L203.09,245 L203.09,230.524 Z M212.47,230.524 L215.354,230.524 L215.354,232.624 L212.47,232.624 L212.47,241.612 C212.47,241.892001 212.493333,242.115999 212.54,242.284 C212.586667,242.452001 212.675333,242.582666 212.806,242.676 C212.936667,242.769334 213.118665,242.83 213.352,242.858 C213.585334,242.886 213.888665,242.9 214.262,242.9 L215.354,242.9 L215.354,245 L213.534,245 C212.917997,245 212.390669,244.958 211.952,244.874 C211.513331,244.79 211.158668,244.636001 210.888,244.412 C210.617332,244.187999 210.416667,243.870669 210.286,243.46 C210.155333,243.049331 210.09,242.508003 210.09,241.836 L210.09,232.624 L207.626,232.624 L207.626,230.524 L210.09,230.524 L210.09,226.184 L212.47,226.184 L212.47,230.524 Z M220.506,227.92 L218.126,227.92 L218.126,225.008 L220.506,225.008 L220.506,227.92 Z M218.126,230.524 L220.506,230.524 L220.506,245 L218.126,245 L218.126,230.524 Z M225.938,237.776 C225.938,238.653338 226.054665,239.432663 226.288,240.114 C226.521334,240.795337 226.843331,241.364664 227.254,241.822 C227.664669,242.279336 228.145331,242.629332 228.696,242.872 C229.246669,243.114668 229.829997,243.236 230.446,243.236 C231.062003,243.236 231.645331,243.114668 232.196,242.872 C232.746669,242.629332 233.227331,242.279336 233.638,241.822 C234.048669,241.364664 234.370665,240.795337 234.604,240.114 C234.837334,239.432663 234.954,238.653338 234.954,237.776 C234.954,236.898662 234.837334,236.119337 234.604,235.438 C234.370665,234.756663 234.048669,234.182669 233.638,233.716 C233.227331,233.249331 232.746669,232.894668 232.196,232.652 C231.645331,232.409332 231.062003,232.288 230.446,232.288 C229.829997,232.288 229.246669,232.409332 228.696,232.652 C228.145331,232.894668 227.664669,233.249331 227.254,233.716 C226.843331,234.182669 226.521334,234.756663 226.288,235.438 C226.054665,236.119337 225.938,236.898662 225.938,237.776 Z M223.418,237.776 C223.418,236.711995 223.567332,235.718005 223.866,234.794 C224.164668,233.869995 224.612664,233.067337 225.21,232.386 C225.807336,231.704663 226.544662,231.168002 227.422,230.776 C228.299338,230.383998 229.307328,230.188 230.446,230.188 C231.603339,230.188 232.615996,230.383998 233.484,230.776 C234.352004,231.168002 235.084664,231.704663 235.682,232.386 C236.279336,233.067337 236.727332,233.869995 237.026,234.794 C237.324668,235.718005 237.474,236.711995 237.474,237.776 C237.474,238.840005 237.324668,239.829329 237.026,240.744 C236.727332,241.658671 236.279336,242.456663 235.682,243.138 C235.084664,243.819337 234.352004,244.351331 233.484,244.734 C232.615996,245.116669 231.603339,245.308 230.446,245.308 C229.307328,245.308 228.299338,245.116669 227.422,244.734 C226.544662,244.351331 225.807336,243.819337 225.21,243.138 C224.612664,242.456663 224.164668,241.658671 223.866,240.744 C223.567332,239.829329 223.418,238.840005 223.418,237.776 Z M240.274,230.524 L242.514,230.524 L242.514,232.82 L242.57,232.82 C243.559338,231.065325 245.127323,230.188 247.274,230.188 C248.226005,230.188 249.01933,230.318665 249.654,230.58 C250.28867,230.841335 250.801998,231.205331 251.194,231.672 C251.586002,232.138669 251.861333,232.693997 252.02,233.338 C252.178667,233.982003 252.258,234.695996 252.258,235.48 L252.258,245 L249.878,245 L249.878,235.2 C249.878,234.303996 249.616669,233.594669 249.094,233.072 C248.571331,232.549331 247.852671,232.288 246.938,232.288 C246.209996,232.288 245.580003,232.399999 245.048,232.624 C244.515997,232.848001 244.072668,233.165331 243.718,233.576 C243.363332,233.986669 243.097334,234.467331 242.92,235.018 C242.742666,235.568669 242.654,236.170663 242.654,236.824 L242.654,245 L240.274,245 L240.274,230.524 Z M257.298,240.436 C257.316667,240.958669 257.437999,241.401998 257.662,241.766 C257.886001,242.130002 258.179998,242.419332 258.544,242.634 C258.908002,242.848668 259.318664,243.002666 259.776,243.096 C260.233336,243.189334 260.704664,243.236 261.19,243.236 C261.563335,243.236 261.955331,243.208 262.366,243.152 C262.776669,243.096 263.154665,242.993334 263.5,242.844 C263.845335,242.694666 264.129999,242.475335 264.354,242.186 C264.578001,241.896665 264.69,241.528002 264.69,241.08 C264.69,240.463997 264.456669,239.997335 263.99,239.68 C263.523331,239.362665 262.940003,239.106001 262.24,238.91 C261.539997,238.713999 260.779337,238.536667 259.958,238.378 C259.136663,238.219333 258.376003,237.995335 257.676,237.706 C256.975996,237.416665 256.392669,237.010669 255.926,236.488 C255.459331,235.965331 255.226,235.237338 255.226,234.304 C255.226,233.575996 255.389332,232.950669 255.716,232.428 C256.042668,231.905331 256.462664,231.480668 256.976,231.154 C257.489336,230.827332 258.067997,230.584667 258.712,230.426 C259.356003,230.267333 259.99533,230.188 260.63,230.188 C261.451337,230.188 262.20733,230.257999 262.898,230.398 C263.58867,230.538001 264.199997,230.780665 264.732,231.126 C265.264003,231.471335 265.688665,231.937997 266.006,232.526 C266.323335,233.114003 266.51,233.846662 266.566,234.724 L264.186,234.724 C264.148666,234.257331 264.027334,233.870002 263.822,233.562 C263.616666,233.253998 263.355335,233.006668 263.038,232.82 C262.720665,232.633332 262.370669,232.498 261.988,232.414 C261.605331,232.33 261.218002,232.288 260.826,232.288 C260.471332,232.288 260.112002,232.316 259.748,232.372 C259.383998,232.428 259.052668,232.525999 258.754,232.666 C258.455332,232.806001 258.212668,232.992665 258.026,233.226 C257.839332,233.459335 257.746,233.762665 257.746,234.136 C257.746,234.546669 257.890665,234.887332 258.18,235.158 C258.469335,235.428668 258.837998,235.652666 259.286,235.83 C259.734002,236.007334 260.237997,236.156666 260.798,236.278 C261.358003,236.399334 261.917997,236.525333 262.478,236.656 C263.075336,236.786667 263.658664,236.945332 264.228,237.132 C264.797336,237.318668 265.301331,237.565998 265.74,237.874 C266.178669,238.182002 266.533332,238.569331 266.804,239.036 C267.074668,239.502669 267.21,240.08133 267.21,240.772 C267.21,241.649338 267.028002,242.37733 266.664,242.956 C266.299998,243.53467 265.824003,244.001332 265.236,244.356 C264.647997,244.710668 263.985337,244.957999 263.248,245.098 C262.510663,245.238001 261.778004,245.308 261.05,245.308 C260.247329,245.308 259.482004,245.224001 258.754,245.056 C258.025996,244.887999 257.382003,244.612669 256.822,244.23 C256.261997,243.847331 255.814002,243.343336 255.478,242.718 C255.141998,242.092664 254.955334,241.332004 254.918,240.436 L257.298,240.436 Z M278.606,232.624 L276.17,232.624 L276.17,230.524 L278.606,230.524 L278.606,228.368 C278.606,227.191994 278.946663,226.30067 279.628,225.694 C280.309337,225.08733 281.303327,224.784 282.61,224.784 C282.834001,224.784 283.090665,224.802666 283.38,224.84 C283.669335,224.877334 283.925999,224.933333 284.15,225.008 L284.15,227.08 C283.944666,227.005333 283.720668,226.954 283.478,226.926 C283.235332,226.898 283.011334,226.884 282.806,226.884 C282.22733,226.884 281.779335,226.995999 281.462,227.22 C281.144665,227.444001 280.986,227.87333 280.986,228.508 L280.986,230.524 L283.786,230.524 L283.786,232.624 L280.986,232.624 L280.986,245 L278.606,245 L278.606,232.624 Z M287.65,237.776 C287.65,238.653338 287.766665,239.432663 288,240.114 C288.233334,240.795337 288.555331,241.364664 288.966,241.822 C289.376669,242.279336 289.857331,242.629332 290.408,242.872 C290.958669,243.114668 291.541997,243.236 292.158,243.236 C292.774003,243.236 293.357331,243.114668 293.908,242.872 C294.458669,242.629332 294.939331,242.279336 295.35,241.822 C295.760669,241.364664 296.082665,240.795337 296.316,240.114 C296.549334,239.432663 296.666,238.653338 296.666,237.776 C296.666,236.898662 296.549334,236.119337 296.316,235.438 C296.082665,234.756663 295.760669,234.182669 295.35,233.716 C294.939331,233.249331 294.458669,232.894668 293.908,232.652 C293.357331,232.409332 292.774003,232.288 292.158,232.288 C291.541997,232.288 290.958669,232.409332 290.408,232.652 C289.857331,232.894668 289.376669,233.249331 288.966,233.716 C288.555331,234.182669 288.233334,234.756663 288,235.438 C287.766665,236.119337 287.65,236.898662 287.65,237.776 Z M285.13,237.776 C285.13,236.711995 285.279332,235.718005 285.578,234.794 C285.876668,233.869995 286.324664,233.067337 286.922,232.386 C287.519336,231.704663 288.256662,231.168002 289.134,230.776 C290.011338,230.383998 291.019328,230.188 292.158,230.188 C293.315339,230.188 294.327996,230.383998 295.196,230.776 C296.064004,231.168002 296.796664,231.704663 297.394,232.386 C297.991336,233.067337 298.439332,233.869995 298.738,234.794 C299.036668,235.718005 299.186,236.711995 299.186,237.776 C299.186,238.840005 299.036668,239.829329 298.738,240.744 C298.439332,241.658671 297.991336,242.456663 297.394,243.138 C296.796664,243.819337 296.064004,244.351331 295.196,244.734 C294.327996,245.116669 293.315339,245.308 292.158,245.308 C291.019328,245.308 290.011338,245.116669 289.134,244.734 C288.256662,244.351331 287.519336,243.819337 286.922,243.138 C286.324664,242.456663 285.876668,241.658671 285.578,240.744 C285.279332,239.829329 285.13,238.840005 285.13,237.776 Z M301.902,230.524 L304.142,230.524 L304.142,233.576 L304.198,233.576 C304.77667,232.399994 305.485996,231.532003 306.326,230.972 C307.166004,230.411997 308.229994,230.150666 309.518,230.188 L309.518,232.708 C308.565995,232.708 307.754003,232.838665 307.082,233.1 C306.409997,233.361335 305.868669,233.743997 305.458,234.248 C305.047331,234.752003 304.748668,235.36333 304.562,236.082 C304.375332,236.80067 304.282,237.626662 304.282,238.56 L304.282,245 L301.902,245 L301.902,230.524 Z" id="Lead-Copy" fill="#C4C4C4"></path>
                    <path d="M330.952,227.36 C331.352002,227.36 332.061995,227.190002 333.082,226.85 C334.102005,226.509998 334.971996,226.34 335.692,226.34 C336.892006,226.34 337.961995,226.659997 338.902,227.3 C339.162001,227.500001 339.421999,227.719999 339.682,227.96 C339.942001,228.200001 340.201999,228.479998 340.462,228.8 C339.681996,229.480003 339.112002,230.079997 338.752,230.6 C338.091997,231.520005 337.762,232.549994 337.762,233.69 C337.762,234.930006 338.111997,236.049995 338.812,237.05 C339.492003,238.030005 340.281995,238.659999 341.182,238.94 C340.981999,239.540003 340.732002,240.154997 340.432,240.785 C340.131999,241.415003 339.772002,242.049997 339.352,242.69 C338.071994,244.63001 336.782007,245.6 335.482,245.6 C334.941997,245.6 334.232004,245.440002 333.352,245.12 C332.491996,244.819998 331.742003,244.67 331.102,244.67 C330.441997,244.67 329.722004,244.829998 328.942,245.15 C328.101996,245.490002 327.442002,245.66 326.962,245.66 C325.441992,245.66 323.942007,244.370013 322.462,241.79 C320.981993,239.229987 320.242,236.710012 320.242,234.23 C320.242,231.949989 320.801994,230.080007 321.922,228.62 C323.062006,227.179993 324.491991,226.46 326.212,226.46 C326.952004,226.46 327.841995,226.609998 328.882,226.91 C329.942005,227.210002 330.631998,227.36 330.952,227.36 Z M335.542,221.3 C335.542,221.940003 335.392001,222.629996 335.092,223.37 C334.791998,224.110004 334.332003,224.799997 333.712,225.44 C333.131997,225.980003 332.582003,226.339999 332.062,226.52 C331.681998,226.620001 331.172003,226.7 330.532,226.76 C330.552,225.279993 330.936996,223.995005 331.687,222.905 C332.437004,221.814995 333.691991,221.070002 335.452,220.67 C335.492,220.810001 335.517,220.93 335.527,221.03 C335.537,221.13 335.542,221.22 335.542,221.3 Z M354.508,227.92 L352.128,227.92 L352.128,225.008 L354.508,225.008 L354.508,227.92 Z M352.128,230.524 L354.508,230.524 L354.508,245 L352.128,245 L352.128,230.524 Z M360.136,235.004 C360.136,236.012005 360.266665,237.005995 360.528,237.986 C360.789335,238.966005 361.199997,239.847996 361.76,240.632 C362.320003,241.416004 363.038662,242.045998 363.916,242.522 C364.793338,242.998002 365.838661,243.236 367.052,243.236 C368.265339,243.236 369.310662,242.998002 370.188,242.522 C371.065338,242.045998 371.783997,241.416004 372.344,240.632 C372.904003,239.847996 373.314665,238.966005 373.576,237.986 C373.837335,237.005995 373.968,236.012005 373.968,235.004 C373.968,233.995995 373.837335,233.002005 373.576,232.022 C373.314665,231.041995 372.904003,230.160004 372.344,229.376 C371.783997,228.591996 371.065338,227.962002 370.188,227.486 C369.310662,227.009998 368.265339,226.772 367.052,226.772 C365.838661,226.772 364.793338,227.009998 363.916,227.486 C363.038662,227.962002 362.320003,228.591996 361.76,229.376 C361.199997,230.160004 360.789335,231.041995 360.528,232.022 C360.266665,233.002005 360.136,233.995995 360.136,235.004 Z M357.476,235.004 C357.476,233.641327 357.676665,232.330006 358.078,231.07 C358.479335,229.809994 359.081329,228.694672 359.884,227.724 C360.686671,226.753328 361.685327,225.97867 362.88,225.4 C364.074673,224.82133 365.465325,224.532 367.052,224.532 C368.638675,224.532 370.029327,224.82133 371.224,225.4 C372.418673,225.97867 373.417329,226.753328 374.22,227.724 C375.022671,228.694672 375.624665,229.809994 376.026,231.07 C376.427335,232.330006 376.628,233.641327 376.628,235.004 C376.628,236.366673 376.427335,237.677994 376.026,238.938 C375.624665,240.198006 375.022671,241.313328 374.22,242.284 C373.417329,243.254672 372.418673,244.024664 371.224,244.594 C370.029327,245.163336 368.638675,245.448 367.052,245.448 C365.465325,245.448 364.074673,245.163336 362.88,244.594 C361.685327,244.024664 360.686671,243.254672 359.884,242.284 C359.081329,241.313328 358.479335,240.198006 358.078,238.938 C357.676665,237.677994 357.476,236.366673 357.476,235.004 Z M391.44,230.86 C391.290666,229.422659 390.772671,228.382003 389.886,227.738 C388.999329,227.093997 387.86534,226.772 386.484,226.772 C385.923997,226.772 385.373336,226.827999 384.832,226.94 C384.290664,227.052001 383.810002,227.238665 383.39,227.5 C382.969998,227.761335 382.634001,228.111331 382.382,228.55 C382.129999,228.988669 382.004,229.534663 382.004,230.188 C382.004,230.804003 382.185998,231.303331 382.55,231.686 C382.914002,232.068669 383.39933,232.381332 384.006,232.624 C384.61267,232.866668 385.298663,233.067333 386.064,233.226 C386.829337,233.384667 387.608663,233.557332 388.402,233.744 C389.195337,233.930668 389.974663,234.149999 390.74,234.402 C391.505337,234.654001 392.19133,234.994665 392.798,235.424 C393.40467,235.853335 393.889998,236.394663 394.254,237.048 C394.618002,237.701337 394.8,238.522662 394.8,239.512 C394.8,240.576005 394.562002,241.485996 394.086,242.242 C393.609998,242.998004 392.99867,243.613998 392.252,244.09 C391.50533,244.566002 390.670005,244.911332 389.746,245.126 C388.821995,245.340668 387.902671,245.448 386.988,245.448 C385.867994,245.448 384.808672,245.308001 383.81,245.028 C382.811328,244.747999 381.934004,244.323336 381.178,243.754 C380.421996,243.184664 379.824669,242.456671 379.386,241.57 C378.947331,240.683329 378.728,239.633339 378.728,238.42 L381.248,238.42 C381.248,239.260004 381.411332,239.98333 381.738,240.59 C382.064668,241.19667 382.493997,241.695998 383.026,242.088 C383.558003,242.480002 384.178663,242.769332 384.888,242.956 C385.597337,243.142668 386.32533,243.236 387.072,243.236 C387.669336,243.236 388.27133,243.180001 388.878,243.068 C389.48467,242.955999 390.030664,242.764668 390.516,242.494 C391.001336,242.223332 391.393332,241.854669 391.692,241.388 C391.990668,240.921331 392.14,240.324004 392.14,239.596 C392.14,238.90533 391.958002,238.345335 391.594,237.916 C391.229998,237.486665 390.74467,237.136668 390.138,236.866 C389.53133,236.595332 388.845337,236.376001 388.08,236.208 C387.314663,236.039999 386.535337,235.867334 385.742,235.69 C384.948663,235.512666 384.169337,235.307334 383.404,235.074 C382.638663,234.840666 381.95267,234.532669 381.346,234.15 C380.73933,233.767331 380.254002,233.27267 379.89,232.666 C379.525998,232.05933 379.344,231.298671 379.344,230.384 C379.344,229.375995 379.549331,228.503337 379.96,227.766 C380.370669,227.028663 380.916663,226.422002 381.598,225.946 C382.279337,225.469998 383.053996,225.115334 383.922,224.882 C384.790004,224.648665 385.681329,224.532 386.596,224.532 C387.622672,224.532 388.574662,224.653332 389.452,224.896 C390.329338,225.138668 391.09933,225.521331 391.762,226.044 C392.42467,226.566669 392.947331,227.224663 393.33,228.018 C393.712669,228.811337 393.922666,229.758661 393.96,230.86 L391.44,230.86 Z M411.32,232.708 C411.600001,232.521332 411.898665,232.316001 412.216,232.092 C412.533335,231.867999 412.822665,231.616001 413.084,231.336 C413.345335,231.055999 413.559999,230.743335 413.728,230.398 C413.896001,230.052665 413.98,229.665335 413.98,229.236 C413.98,228.65733 413.774669,228.158002 413.364,227.738 C412.953331,227.317998 412.393337,227.108 411.684,227.108 C411.123997,227.108 410.601336,227.280665 410.116,227.626 C409.630664,227.971335 409.388,228.507996 409.388,229.236 C409.388,229.534668 409.448666,229.833332 409.57,230.132 C409.691334,230.430668 409.845332,230.724665 410.032,231.014 C410.218668,231.303335 410.423999,231.587999 410.648,231.868 L411.32,232.708 Z M416.444,242.508 C415.846664,243.441338 415.030005,244.141331 413.994,244.608 C412.957995,245.074669 411.889339,245.308 410.788,245.308 C409.443993,245.308 408.361337,245.102669 407.54,244.692 C406.718663,244.281331 406.084002,243.78667 405.636,243.208 C405.187998,242.62933 404.894001,242.032003 404.754,241.416 C404.613999,240.799997 404.544,240.286669 404.544,239.876 C404.544,239.091996 404.669999,238.401336 404.922,237.804 C405.174001,237.206664 405.509998,236.670002 405.93,236.194 C406.350002,235.717998 406.844664,235.288669 407.414,234.906 C407.983336,234.523331 408.58533,234.164002 409.22,233.828 C408.939999,233.435998 408.669335,233.062668 408.408,232.708 C408.146665,232.353332 407.908668,231.994002 407.694,231.63 C407.479332,231.265998 407.311334,230.883335 407.19,230.482 C407.068666,230.080665 407.008,229.628003 407.008,229.124 C407.008,228.582664 407.105999,228.064669 407.302,227.57 C407.498001,227.075331 407.787331,226.636669 408.17,226.254 C408.552669,225.871331 409.023997,225.568001 409.584,225.344 C410.144003,225.119999 410.787996,225.008 411.516,225.008 C412.132003,225.008 412.733997,225.091999 413.322,225.26 C413.910003,225.428001 414.427998,225.684665 414.876,226.03 C415.324002,226.375335 415.683332,226.804664 415.954,227.318 C416.224668,227.831336 416.36,228.423997 416.36,229.096 C416.36,229.693336 416.257334,230.248664 416.052,230.762 C415.846666,231.275336 415.566668,231.746665 415.212,232.176 C414.857332,232.605335 414.456002,232.992665 414.008,233.338 C413.559998,233.683335 413.093336,233.995999 412.608,234.276 L416.22,238.672 C416.593335,237.626661 416.808,236.590672 416.864,235.564 L419.132,235.564 C419.076,236.161336 419.015334,236.669998 418.95,237.09 C418.884666,237.510002 418.800667,237.897332 418.698,238.252 C418.595333,238.606668 418.469334,238.956665 418.32,239.302 C418.170666,239.647335 417.993334,240.043998 417.788,240.492 L421.68,245 L418.572,245 L416.444,242.508 Z M410.536,235.34 C410.069331,235.601335 409.626002,235.871999 409.206,236.152 C408.785998,236.432001 408.417335,236.749332 408.1,237.104 C407.782665,237.458668 407.530668,237.855331 407.344,238.294 C407.157332,238.732669 407.064,239.250664 407.064,239.848 C407.064,240.352003 407.171332,240.813998 407.386,241.234 C407.600668,241.654002 407.885332,242.008665 408.24,242.298 C408.594668,242.587335 409.000664,242.815999 409.458,242.984 C409.915336,243.152001 410.386664,243.236 410.872,243.236 C411.786671,243.236 412.60333,243.021335 413.322,242.592 C414.04067,242.162665 414.642664,241.584004 415.128,240.856 L410.536,235.34 Z M434.14,230.524 L437.024,230.524 L437.024,232.624 L434.14,232.624 L434.14,241.612 C434.14,241.892001 434.163333,242.115999 434.21,242.284 C434.256667,242.452001 434.345333,242.582666 434.476,242.676 C434.606667,242.769334 434.788665,242.83 435.022,242.858 C435.255335,242.886 435.558665,242.9 435.932,242.9 L437.024,242.9 L437.024,245 L435.204,245 C434.587997,245 434.060669,244.958 433.622,244.874 C433.183331,244.79 432.828668,244.636001 432.558,244.412 C432.287332,244.187999 432.086667,243.870669 431.956,243.46 C431.825333,243.049331 431.76,242.508003 431.76,241.836 L431.76,232.624 L429.296,232.624 L429.296,230.524 L431.76,230.524 L431.76,226.184 L434.14,226.184 L434.14,230.524 Z M446.18,245 L443.632,245 L438.256,230.524 L440.916,230.524 L444.976,242.592 L445.032,242.592 L448.98,230.524 L451.472,230.524 L446.18,245 Z M455.588,235.004 C455.588,236.012005 455.718665,237.005995 455.98,237.986 C456.241335,238.966005 456.651997,239.847996 457.212,240.632 C457.772003,241.416004 458.490662,242.045998 459.368,242.522 C460.245338,242.998002 461.290661,243.236 462.504,243.236 C463.717339,243.236 464.762662,242.998002 465.64,242.522 C466.517338,242.045998 467.235997,241.416004 467.796,240.632 C468.356003,239.847996 468.766665,238.966005 469.028,237.986 C469.289335,237.005995 469.42,236.012005 469.42,235.004 C469.42,233.995995 469.289335,233.002005 469.028,232.022 C468.766665,231.041995 468.356003,230.160004 467.796,229.376 C467.235997,228.591996 466.517338,227.962002 465.64,227.486 C464.762662,227.009998 463.717339,226.772 462.504,226.772 C461.290661,226.772 460.245338,227.009998 459.368,227.486 C458.490662,227.962002 457.772003,228.591996 457.212,229.376 C456.651997,230.160004 456.241335,231.041995 455.98,232.022 C455.718665,233.002005 455.588,233.995995 455.588,235.004 Z M452.928,235.004 C452.928,233.641327 453.128665,232.330006 453.53,231.07 C453.931335,229.809994 454.533329,228.694672 455.336,227.724 C456.138671,226.753328 457.137327,225.97867 458.332,225.4 C459.526673,224.82133 460.917325,224.532 462.504,224.532 C464.090675,224.532 465.481327,224.82133 466.676,225.4 C467.870673,225.97867 468.869329,226.753328 469.672,227.724 C470.474671,228.694672 471.076665,229.809994 471.478,231.07 C471.879335,232.330006 472.08,233.641327 472.08,235.004 C472.08,236.366673 471.879335,237.677994 471.478,238.938 C471.076665,240.198006 470.474671,241.313328 469.672,242.284 C468.869329,243.254672 467.870673,244.024664 466.676,244.594 C465.481327,245.163336 464.090675,245.448 462.504,245.448 C460.917325,245.448 459.526673,245.163336 458.332,244.594 C457.137327,244.024664 456.138671,243.254672 455.336,242.284 C454.533329,241.313328 453.931335,240.198006 453.53,238.938 C453.128665,237.677994 452.928,236.366673 452.928,235.004 Z M486.892,230.86 C486.742666,229.422659 486.224671,228.382003 485.338,227.738 C484.451329,227.093997 483.31734,226.772 481.936,226.772 C481.375997,226.772 480.825336,226.827999 480.284,226.94 C479.742664,227.052001 479.262002,227.238665 478.842,227.5 C478.421998,227.761335 478.086001,228.111331 477.834,228.55 C477.581999,228.988669 477.456,229.534663 477.456,230.188 C477.456,230.804003 477.637998,231.303331 478.002,231.686 C478.366002,232.068669 478.85133,232.381332 479.458,232.624 C480.06467,232.866668 480.750663,233.067333 481.516,233.226 C482.281337,233.384667 483.060663,233.557332 483.854,233.744 C484.647337,233.930668 485.426663,234.149999 486.192,234.402 C486.957337,234.654001 487.64333,234.994665 488.25,235.424 C488.85667,235.853335 489.341998,236.394663 489.706,237.048 C490.070002,237.701337 490.252,238.522662 490.252,239.512 C490.252,240.576005 490.014002,241.485996 489.538,242.242 C489.061998,242.998004 488.45067,243.613998 487.704,244.09 C486.95733,244.566002 486.122005,244.911332 485.198,245.126 C484.273995,245.340668 483.354671,245.448 482.44,245.448 C481.319994,245.448 480.260672,245.308001 479.262,245.028 C478.263328,244.747999 477.386004,244.323336 476.63,243.754 C475.873996,243.184664 475.276669,242.456671 474.838,241.57 C474.399331,240.683329 474.18,239.633339 474.18,238.42 L476.7,238.42 C476.7,239.260004 476.863332,239.98333 477.19,240.59 C477.516668,241.19667 477.945997,241.695998 478.478,242.088 C479.010003,242.480002 479.630663,242.769332 480.34,242.956 C481.049337,243.142668 481.77733,243.236 482.524,243.236 C483.121336,243.236 483.72333,243.180001 484.33,243.068 C484.93667,242.955999 485.482664,242.764668 485.968,242.494 C486.453336,242.223332 486.845332,241.854669 487.144,241.388 C487.442668,240.921331 487.592,240.324004 487.592,239.596 C487.592,238.90533 487.410002,238.345335 487.046,237.916 C486.681998,237.486665 486.19667,237.136668 485.59,236.866 C484.98333,236.595332 484.297337,236.376001 483.532,236.208 C482.766663,236.039999 481.987337,235.867334 481.194,235.69 C480.400663,235.512666 479.621337,235.307334 478.856,235.074 C478.090663,234.840666 477.40467,234.532669 476.798,234.15 C476.19133,233.767331 475.706002,233.27267 475.342,232.666 C474.977998,232.05933 474.796,231.298671 474.796,230.384 C474.796,229.375995 475.001331,228.503337 475.412,227.766 C475.822669,227.028663 476.368663,226.422002 477.05,225.946 C477.731337,225.469998 478.505996,225.115334 479.374,224.882 C480.242004,224.648665 481.133329,224.532 482.048,224.532 C483.074672,224.532 484.026662,224.653332 484.904,224.896 C485.781338,225.138668 486.55133,225.521331 487.214,226.044 C487.87667,226.566669 488.399331,227.224663 488.782,228.018 C489.164669,228.811337 489.374666,229.758661 489.412,230.86 L486.892,230.86 Z" id="Lead" fill="#000000"></path>
                    <path d="M88.534,155.014 L112.691,155.014 L112.691,157.856 L91.866,157.856 L91.866,170.498 L111.368,170.498 L111.368,173.34 L91.866,173.34 L91.866,187.158 L112.936,187.158 L112.936,190 L88.534,190 L88.534,155.014 Z M116.709,172.458 C116.807,170.987993 117.117331,169.714005 117.64,168.636 C118.162669,167.557995 118.873162,166.676003 119.7715,165.99 C120.669838,165.303997 121.723327,164.797668 122.932,164.471 C124.140673,164.144332 125.479993,163.981 126.95,163.981 C128.060672,163.981 129.171328,164.087166 130.282,164.2995 C131.392672,164.511834 132.388996,164.911997 133.271,165.5 C134.153004,166.088003 134.871664,166.912828 135.427,167.9745 C135.982336,169.036172 136.26,170.416325 136.26,172.115 L136.26,185.541 C136.26,186.78234 136.864327,187.403 138.073,187.403 C138.432335,187.403 138.758999,187.337667 139.053,187.207 L139.053,189.804 C138.693665,189.869334 138.375168,189.918333 138.0975,189.951 C137.819832,189.983667 137.468669,190 137.044,190 C136.259996,190 135.631169,189.893834 135.1575,189.6815 C134.683831,189.469166 134.316335,189.167002 134.055,188.775 C133.793665,188.382998 133.622167,187.917503 133.5405,187.3785 C133.458833,186.839497 133.418,186.243337 133.418,185.59 L133.32,185.59 C132.764664,186.406671 132.20117,187.133497 131.6295,187.7705 C131.05783,188.407503 130.420837,188.938331 129.7185,189.363 C129.016163,189.787669 128.215838,190.114332 127.3175,190.343 C126.419162,190.571668 125.34934,190.686 124.108,190.686 C122.931994,190.686 121.829505,190.547168 120.8005,190.2695 C119.771495,189.991832 118.873171,189.550836 118.1055,188.9465 C117.337829,188.342164 116.733502,187.574505 116.2925,186.6435 C115.851498,185.712495 115.631,184.610006 115.631,183.336 C115.631,181.571991 116.022996,180.191838 116.807,179.1955 C117.591004,178.199162 118.62816,177.439669 119.9185,176.917 C121.20884,176.394331 122.662492,176.026834 124.2795,175.8145 C125.896508,175.602166 127.537992,175.398001 129.204,175.202 C129.857337,175.136666 130.428998,175.055 130.919,174.957 C131.409002,174.859 131.817332,174.687501 132.144,174.4425 C132.470668,174.197499 132.723832,173.862669 132.9035,173.438 C133.083168,173.013331 133.173,172.458003 133.173,171.772 C133.173,170.726661 133.001502,169.86917 132.6585,169.1995 C132.315498,168.52983 131.841836,167.999002 131.2375,167.607 C130.633164,167.214998 129.930837,166.945501 129.1305,166.7985 C128.330163,166.651499 127.472671,166.578 126.558,166.578 C124.59799,166.578 122.99734,167.043495 121.756,167.9745 C120.51466,168.905505 119.861334,170.39999 119.796,172.458 L116.709,172.458 Z M133.173,176.182 L133.075,176.182 C132.878999,176.541335 132.503336,176.802666 131.948,176.966 C131.392664,177.129334 130.902669,177.243666 130.478,177.309 C129.171327,177.537668 127.82384,177.741832 126.4355,177.9215 C125.04716,178.101168 123.781339,178.370665 122.638,178.73 C121.494661,179.089335 120.555504,179.60383 119.8205,180.2735 C119.085496,180.94317 118.718,181.89866 118.718,183.14 C118.718,183.924004 118.873165,184.618164 119.1835,185.2225 C119.493835,185.826836 119.910331,186.349498 120.433,186.7905 C120.955669,187.231502 121.559997,187.566332 122.246,187.795 C122.932003,188.023668 123.63433,188.138 124.353,188.138 C125.529006,188.138 126.655995,187.958335 127.734,187.599 C128.812005,187.239665 129.751163,186.717003 130.5515,186.031 C131.351837,185.344997 131.988831,184.512005 132.4625,183.532 C132.936169,182.551995 133.173,181.44134 133.173,180.2 L133.173,176.182 Z M157.575,172.115 C157.542333,171.167662 157.346335,170.342837 156.987,169.6405 C156.627665,168.938163 156.145836,168.358336 155.5415,167.901 C154.937164,167.443664 154.243004,167.108834 153.459,166.8965 C152.674996,166.684166 151.842004,166.578 150.96,166.578 C150.273997,166.578 149.579837,166.651499 148.8775,166.7985 C148.175163,166.945501 147.530003,167.190498 146.942,167.5335 C146.353997,167.876502 145.880335,168.325664 145.521,168.881 C145.161665,169.436336 144.982,170.122329 144.982,170.939 C144.982,171.625003 145.153498,172.204831 145.4965,172.6785 C145.839502,173.152169 146.272331,173.552332 146.795,173.879 C147.317669,174.205668 147.88933,174.475166 148.51,174.6875 C149.13067,174.899834 149.702331,175.071333 150.225,175.202 L154.341,176.133 C155.223004,176.263667 156.096829,176.500498 156.9625,176.8435 C157.828171,177.186502 158.59583,177.635664 159.2655,178.191 C159.93517,178.746336 160.482331,179.432329 160.907,180.249 C161.331669,181.065671 161.544,182.029328 161.544,183.14 C161.544,184.512007 161.23367,185.679829 160.613,186.6435 C159.99233,187.607171 159.200171,188.391164 158.2365,188.9955 C157.272829,189.599836 156.186673,190.032665 154.978,190.294 C153.769327,190.555335 152.577006,190.686 151.401,190.686 C148.428318,190.686 146.019176,189.983674 144.1735,188.579 C142.327824,187.174326 141.274335,184.920349 141.013,181.817 L144.1,181.817 C144.230667,183.907677 144.99016,185.483828 146.3785,186.5455 C147.76684,187.607172 149.48999,188.138 151.548,188.138 C152.299337,188.138 153.075163,188.056334 153.8755,187.893 C154.675837,187.729666 155.418997,187.452002 156.105,187.06 C156.791003,186.667998 157.354498,186.169836 157.7955,185.5655 C158.236502,184.961164 158.457,184.218004 158.457,183.336 C158.457,182.584663 158.301835,181.955836 157.9915,181.4495 C157.681165,180.943164 157.264669,180.518502 156.742,180.1755 C156.219331,179.832498 155.62317,179.546668 154.9535,179.318 C154.28383,179.089332 153.606003,178.893334 152.92,178.73 L148.951,177.848 C147.938328,177.586665 147.007338,177.284502 146.158,176.9415 C145.308662,176.598498 144.565503,176.173836 143.9285,175.6675 C143.291497,175.161164 142.793335,174.540504 142.434,173.8055 C142.074665,173.070496 141.895,172.164005 141.895,171.086 C141.895,169.811994 142.18083,168.717671 142.7525,167.803 C143.32417,166.888329 144.067329,166.153336 144.982,165.598 C145.896671,165.042664 146.917494,164.634335 148.0445,164.373 C149.171506,164.111665 150.290328,163.981 151.401,163.981 C152.675006,163.981 153.859161,164.144332 154.9535,164.471 C156.047839,164.797668 157.011496,165.303997 157.8445,165.99 C158.677504,166.676003 159.338998,167.525328 159.829,168.538 C160.319002,169.550672 160.596666,170.742993 160.662,172.115 L157.575,172.115 Z M163.161,164.716 L166.444,164.716 L174.774,186.276 L182.565,164.716 L185.652,164.716 L174.676,193.822 C174.218664,194.900005 173.794002,195.790163 173.402,196.4925 C173.009998,197.194837 172.577169,197.750165 172.1035,198.1585 C171.629831,198.566835 171.074503,198.860832 170.4375,199.0405 C169.800497,199.220168 168.992005,199.31 168.012,199.31 C167.39133,199.277333 166.909502,199.252833 166.5665,199.2365 C166.223498,199.220167 165.921335,199.163 165.66,199.065 L165.66,196.468 C166.019335,196.533334 166.370498,196.5905 166.7135,196.6395 C167.056502,196.6885 167.407665,196.713 167.767,196.713 C168.453003,196.713 169.016498,196.615001 169.4575,196.419 C169.898502,196.222999 170.282332,195.953502 170.609,195.6105 C170.935668,195.267498 171.213332,194.851002 171.442,194.361 C171.670668,193.870998 171.915665,193.332003 172.177,192.744 L173.255,189.902 L163.161,164.716 Z M185.554,155.014 L213.239,155.014 L213.239,157.856 L201.038,157.856 L201.038,190 L197.706,190 L197.706,157.856 L185.554,157.856 L185.554,155.014 Z M211.426,164.716 L214.268,164.716 L214.268,170.645 L214.366,170.645 C215.150004,168.58699 216.366825,167.002672 218.0165,165.892 C219.666175,164.781328 221.634322,164.275 223.921,164.373 L223.921,167.46 C222.516326,167.394666 221.242339,167.582498 220.099,168.0235 C218.955661,168.464502 217.967504,169.093329 217.1345,169.91 C216.301496,170.726671 215.656336,171.698494 215.199,172.8255 C214.741664,173.952506 214.513,175.18566 214.513,176.525 L214.513,190 L211.426,190 L211.426,164.716 Z M226.567,172.458 C226.665,170.987993 226.975331,169.714005 227.498,168.636 C228.020669,167.557995 228.731162,166.676003 229.6295,165.99 C230.527838,165.303997 231.581327,164.797668 232.79,164.471 C233.998673,164.144332 235.337993,163.981 236.808,163.981 C237.918672,163.981 239.029328,164.087166 240.14,164.2995 C241.250672,164.511834 242.246996,164.911997 243.129,165.5 C244.011004,166.088003 244.729664,166.912828 245.285,167.9745 C245.840336,169.036172 246.118,170.416325 246.118,172.115 L246.118,185.541 C246.118,186.78234 246.722327,187.403 247.931,187.403 C248.290335,187.403 248.616999,187.337667 248.911,187.207 L248.911,189.804 C248.551665,189.869334 248.233168,189.918333 247.9555,189.951 C247.677832,189.983667 247.326669,190 246.902,190 C246.117996,190 245.489169,189.893834 245.0155,189.6815 C244.541831,189.469166 244.174335,189.167002 243.913,188.775 C243.651665,188.382998 243.480167,187.917503 243.3985,187.3785 C243.316833,186.839497 243.276,186.243337 243.276,185.59 L243.178,185.59 C242.622664,186.406671 242.05917,187.133497 241.4875,187.7705 C240.91583,188.407503 240.278837,188.938331 239.5765,189.363 C238.874163,189.787669 238.073838,190.114332 237.1755,190.343 C236.277162,190.571668 235.20734,190.686 233.966,190.686 C232.789994,190.686 231.687505,190.547168 230.6585,190.2695 C229.629495,189.991832 228.731171,189.550836 227.9635,188.9465 C227.195829,188.342164 226.591502,187.574505 226.1505,186.6435 C225.709498,185.712495 225.489,184.610006 225.489,183.336 C225.489,181.571991 225.880996,180.191838 226.665,179.1955 C227.449004,178.199162 228.48616,177.439669 229.7765,176.917 C231.06684,176.394331 232.520492,176.026834 234.1375,175.8145 C235.754508,175.602166 237.395992,175.398001 239.062,175.202 C239.715337,175.136666 240.286998,175.055 240.777,174.957 C241.267002,174.859 241.675332,174.687501 242.002,174.4425 C242.328668,174.197499 242.581832,173.862669 242.7615,173.438 C242.941168,173.013331 243.031,172.458003 243.031,171.772 C243.031,170.726661 242.859502,169.86917 242.5165,169.1995 C242.173498,168.52983 241.699836,167.999002 241.0955,167.607 C240.491164,167.214998 239.788837,166.945501 238.9885,166.7985 C238.188163,166.651499 237.330671,166.578 236.416,166.578 C234.45599,166.578 232.85534,167.043495 231.614,167.9745 C230.37266,168.905505 229.719334,170.39999 229.654,172.458 L226.567,172.458 Z M243.031,176.182 L242.933,176.182 C242.736999,176.541335 242.361336,176.802666 241.806,176.966 C241.250664,177.129334 240.760669,177.243666 240.336,177.309 C239.029327,177.537668 237.68184,177.741832 236.2935,177.9215 C234.90516,178.101168 233.639339,178.370665 232.496,178.73 C231.352661,179.089335 230.413504,179.60383 229.6785,180.2735 C228.943496,180.94317 228.576,181.89866 228.576,183.14 C228.576,183.924004 228.731165,184.618164 229.0415,185.2225 C229.351835,185.826836 229.768331,186.349498 230.291,186.7905 C230.813669,187.231502 231.417997,187.566332 232.104,187.795 C232.790003,188.023668 233.49233,188.138 234.211,188.138 C235.387006,188.138 236.513995,187.958335 237.592,187.599 C238.670005,187.239665 239.609163,186.717003 240.4095,186.031 C241.209837,185.344997 241.846831,184.512005 242.3205,183.532 C242.794169,182.551995 243.031,181.44134 243.031,180.2 L243.031,176.182 Z M252.243,164.716 L255.33,164.716 L255.33,169.077 L255.428,169.077 C256.016003,167.541659 257.061326,166.308505 258.564,165.3775 C260.066674,164.446495 261.716324,163.981 263.513,163.981 C265.277009,163.981 266.755161,164.209664 267.9475,164.667 C269.139839,165.124336 270.09533,165.769496 270.814,166.6025 C271.53267,167.435504 272.038999,168.456327 272.333,169.665 C272.627001,170.873673 272.774,172.229326 272.774,173.732 L272.774,190 L269.687,190 L269.687,174.222 C269.687,173.143995 269.589001,172.139505 269.393,171.2085 C269.196999,170.277495 268.854002,169.469003 268.364,168.783 C267.873998,168.096997 267.212504,167.558002 266.3795,167.166 C265.546496,166.773998 264.50934,166.578 263.268,166.578 C262.02666,166.578 260.924171,166.798498 259.9605,167.2395 C258.996829,167.680502 258.18017,168.284829 257.5105,169.0525 C256.84083,169.820171 256.318169,170.734828 255.9425,171.7965 C255.566831,172.858172 255.362667,174.00966 255.33,175.251 L255.33,190 L252.243,190 L252.243,164.716 Z M293.746,172.115 C293.713333,171.167662 293.517335,170.342837 293.158,169.6405 C292.798665,168.938163 292.316836,168.358336 291.7125,167.901 C291.108164,167.443664 290.414004,167.108834 289.63,166.8965 C288.845996,166.684166 288.013004,166.578 287.131,166.578 C286.444997,166.578 285.750837,166.651499 285.0485,166.7985 C284.346163,166.945501 283.701003,167.190498 283.113,167.5335 C282.524997,167.876502 282.051335,168.325664 281.692,168.881 C281.332665,169.436336 281.153,170.122329 281.153,170.939 C281.153,171.625003 281.324498,172.204831 281.6675,172.6785 C282.010502,173.152169 282.443331,173.552332 282.966,173.879 C283.488669,174.205668 284.06033,174.475166 284.681,174.6875 C285.30167,174.899834 285.873331,175.071333 286.396,175.202 L290.512,176.133 C291.394004,176.263667 292.267829,176.500498 293.1335,176.8435 C293.999171,177.186502 294.76683,177.635664 295.4365,178.191 C296.10617,178.746336 296.653331,179.432329 297.078,180.249 C297.502669,181.065671 297.715,182.029328 297.715,183.14 C297.715,184.512007 297.40467,185.679829 296.784,186.6435 C296.16333,187.607171 295.371171,188.391164 294.4075,188.9955 C293.443829,189.599836 292.357673,190.032665 291.149,190.294 C289.940327,190.555335 288.748006,190.686 287.572,190.686 C284.599318,190.686 282.190176,189.983674 280.3445,188.579 C278.498824,187.174326 277.445335,184.920349 277.184,181.817 L280.271,181.817 C280.401667,183.907677 281.16116,185.483828 282.5495,186.5455 C283.93784,187.607172 285.66099,188.138 287.719,188.138 C288.470337,188.138 289.246163,188.056334 290.0465,187.893 C290.846837,187.729666 291.589997,187.452002 292.276,187.06 C292.962003,186.667998 293.525498,186.169836 293.9665,185.5655 C294.407502,184.961164 294.628,184.218004 294.628,183.336 C294.628,182.584663 294.472835,181.955836 294.1625,181.4495 C293.852165,180.943164 293.435669,180.518502 292.913,180.1755 C292.390331,179.832498 291.79417,179.546668 291.1245,179.318 C290.45483,179.089332 289.777003,178.893334 289.091,178.73 L285.122,177.848 C284.109328,177.586665 283.178338,177.284502 282.329,176.9415 C281.479662,176.598498 280.736503,176.173836 280.0995,175.6675 C279.462497,175.161164 278.964335,174.540504 278.605,173.8055 C278.245665,173.070496 278.066,172.164005 278.066,171.086 C278.066,169.811994 278.35183,168.717671 278.9235,167.803 C279.49517,166.888329 280.238329,166.153336 281.153,165.598 C282.067671,165.042664 283.088494,164.634335 284.2155,164.373 C285.342506,164.111665 286.461328,163.981 287.572,163.981 C288.846006,163.981 290.030161,164.144332 291.1245,164.471 C292.218839,164.797668 293.182496,165.303997 294.0155,165.99 C294.848504,166.676003 295.509998,167.525328 296,168.538 C296.490002,169.550672 296.767666,170.742993 296.833,172.115 L293.746,172.115 Z M302.223,155.014 L305.31,155.014 L305.31,159.963 L302.223,159.963 L302.223,155.014 Z M302.223,164.716 L305.31,164.716 L305.31,190 L302.223,190 L302.223,164.716 Z M316.139,164.716 L321.284,164.716 L321.284,167.313 L316.139,167.313 L316.139,184.365 C316.139,185.377672 316.277832,186.16983 316.5555,186.7415 C316.833168,187.31317 317.527328,187.631666 318.638,187.697 C319.520004,187.697 320.401996,187.648 321.284,187.55 L321.284,190.147 C320.826664,190.147 320.369336,190.163333 319.912,190.196 C319.454664,190.228667 318.997336,190.245 318.54,190.245 C316.48199,190.245 315.044671,189.844837 314.228,189.0445 C313.411329,188.244163 313.019333,186.766011 313.052,184.61 L313.052,167.313 L308.642,167.313 L308.642,164.716 L313.052,164.716 L313.052,157.121 L316.139,157.121 L316.139,164.716 Z M325.792,155.014 L328.879,155.014 L328.879,159.963 L325.792,159.963 L325.792,155.014 Z M325.792,164.716 L328.879,164.716 L328.879,190 L325.792,190 L325.792,164.716 Z M345.49,166.578 C344.019993,166.578 342.729672,166.88833 341.619,167.509 C340.508328,168.12967 339.585504,168.946328 338.8505,169.959 C338.115496,170.971672 337.560169,172.12316 337.1845,173.4135 C336.808831,174.70384 336.621,176.01866 336.621,177.358 C336.621,178.69734 336.808831,180.01216 337.1845,181.3025 C337.560169,182.59284 338.115496,183.744328 338.8505,184.757 C339.585504,185.769672 340.508328,186.58633 341.619,187.207 C342.729672,187.82767 344.019993,188.138 345.49,188.138 C346.960007,188.138 348.250328,187.82767 349.361,187.207 C350.471672,186.58633 351.394496,185.769672 352.1295,184.757 C352.864504,183.744328 353.419831,182.59284 353.7955,181.3025 C354.171169,180.01216 354.359,178.69734 354.359,177.358 C354.359,176.01866 354.171169,174.70384 353.7955,173.4135 C353.419831,172.12316 352.864504,170.971672 352.1295,169.959 C351.394496,168.946328 350.471672,168.12967 349.361,167.509 C348.250328,166.88833 346.960007,166.578 345.49,166.578 Z M345.49,163.981 C347.417343,163.981 349.124159,164.34033 350.6105,165.059 C352.096841,165.77767 353.346328,166.741327 354.359,167.95 C355.371672,169.158673 356.139331,170.571492 356.662,172.1885 C357.184669,173.805508 357.446,175.528658 357.446,177.358 C357.446,179.187342 357.184669,180.910492 356.662,182.5275 C356.139331,184.144508 355.371672,185.557327 354.359,186.766 C353.346328,187.974673 352.096841,188.930163 350.6105,189.6325 C349.124159,190.334837 347.417343,190.686 345.49,190.686 C343.562657,190.686 341.855841,190.334837 340.3695,189.6325 C338.883159,188.930163 337.633672,187.974673 336.621,186.766 C335.608328,185.557327 334.840669,184.144508 334.318,182.5275 C333.795331,180.910492 333.534,179.187342 333.534,177.358 C333.534,175.528658 333.795331,173.805508 334.318,172.1885 C334.840669,170.571492 335.608328,169.158673 336.621,167.95 C337.633672,166.741327 338.883159,165.77767 340.3695,165.059 C341.855841,164.34033 343.562657,163.981 345.49,163.981 Z M362.003,164.716 L365.09,164.716 L365.09,169.077 L365.188,169.077 C365.776003,167.541659 366.821326,166.308505 368.324,165.3775 C369.826674,164.446495 371.476324,163.981 373.273,163.981 C375.037009,163.981 376.515161,164.209664 377.7075,164.667 C378.899839,165.124336 379.85533,165.769496 380.574,166.6025 C381.29267,167.435504 381.798999,168.456327 382.093,169.665 C382.387001,170.873673 382.534,172.229326 382.534,173.732 L382.534,190 L379.447,190 L379.447,174.222 C379.447,173.143995 379.349001,172.139505 379.153,171.2085 C378.956999,170.277495 378.614002,169.469003 378.124,168.783 C377.633998,168.096997 376.972504,167.558002 376.1395,167.166 C375.306496,166.773998 374.26934,166.578 373.028,166.578 C371.78666,166.578 370.684171,166.798498 369.7205,167.2395 C368.756829,167.680502 367.94017,168.284829 367.2705,169.0525 C366.60083,169.820171 366.078169,170.734828 365.7025,171.7965 C365.326831,172.858172 365.122667,174.00966 365.09,175.251 L365.09,190 L362.003,190 L362.003,164.716 Z M403.506,172.115 C403.473333,171.167662 403.277335,170.342837 402.918,169.6405 C402.558665,168.938163 402.076836,168.358336 401.4725,167.901 C400.868164,167.443664 400.174004,167.108834 399.39,166.8965 C398.605996,166.684166 397.773004,166.578 396.891,166.578 C396.204997,166.578 395.510837,166.651499 394.8085,166.7985 C394.106163,166.945501 393.461003,167.190498 392.873,167.5335 C392.284997,167.876502 391.811335,168.325664 391.452,168.881 C391.092665,169.436336 390.913,170.122329 390.913,170.939 C390.913,171.625003 391.084498,172.204831 391.4275,172.6785 C391.770502,173.152169 392.203331,173.552332 392.726,173.879 C393.248669,174.205668 393.82033,174.475166 394.441,174.6875 C395.06167,174.899834 395.633331,175.071333 396.156,175.202 L400.272,176.133 C401.154004,176.263667 402.027829,176.500498 402.8935,176.8435 C403.759171,177.186502 404.52683,177.635664 405.1965,178.191 C405.86617,178.746336 406.413331,179.432329 406.838,180.249 C407.262669,181.065671 407.475,182.029328 407.475,183.14 C407.475,184.512007 407.16467,185.679829 406.544,186.6435 C405.92333,187.607171 405.131171,188.391164 404.1675,188.9955 C403.203829,189.599836 402.117673,190.032665 400.909,190.294 C399.700327,190.555335 398.508006,190.686 397.332,190.686 C394.359318,190.686 391.950176,189.983674 390.1045,188.579 C388.258824,187.174326 387.205335,184.920349 386.944,181.817 L390.031,181.817 C390.161667,183.907677 390.92116,185.483828 392.3095,186.5455 C393.69784,187.607172 395.42099,188.138 397.479,188.138 C398.230337,188.138 399.006163,188.056334 399.8065,187.893 C400.606837,187.729666 401.349997,187.452002 402.036,187.06 C402.722003,186.667998 403.285498,186.169836 403.7265,185.5655 C404.167502,184.961164 404.388,184.218004 404.388,183.336 C404.388,182.584663 404.232835,181.955836 403.9225,181.4495 C403.612165,180.943164 403.195669,180.518502 402.673,180.1755 C402.150331,179.832498 401.55417,179.546668 400.8845,179.318 C400.21483,179.089332 399.537003,178.893334 398.851,178.73 L394.882,177.848 C393.869328,177.586665 392.938338,177.284502 392.089,176.9415 C391.239662,176.598498 390.496503,176.173836 389.8595,175.6675 C389.222497,175.161164 388.724335,174.540504 388.365,173.8055 C388.005665,173.070496 387.826,172.164005 387.826,171.086 C387.826,169.811994 388.11183,168.717671 388.6835,167.803 C389.25517,166.888329 389.998329,166.153336 390.913,165.598 C391.827671,165.042664 392.848494,164.634335 393.9755,164.373 C395.102506,164.111665 396.221328,163.981 397.332,163.981 C398.606006,163.981 399.790161,164.144332 400.8845,164.471 C401.978839,164.797668 402.942496,165.303997 403.7755,165.99 C404.608504,166.676003 405.269998,167.525328 405.76,168.538 C406.250002,169.550672 406.527666,170.742993 406.593,172.115 L403.506,172.115 Z" id="Heading" fill="#000000"></path>
                    <g id="Logos" transform="translate(191.000000, 0.000000)">
                        <g id="Logo">
                            <mask id="mask-3" fill="white">
                                <use xlink:href="#path-2"></use>
                            </mask>
                            <use id="Combined-Shape" fill="url(#linearGradient-1)" xlink:href="#path-2"></use>
                        </g>
                    </g>
                </g>
            </g>
        </g>
    </g>
</svg>