
<svg width="498px" height="251px" viewBox="0 0 498 251" version="1.1" xmlns="http://www.w3.org/2000/svg" xmlns:xlink="http://www.w3.org/1999/xlink">
    <defs>
        <linearGradient x1="50%" y1="0%" x2="50%" y2="97.8188223%" id="linearGradient-1">
            <stop stop-color="#FF107F" offset="0%"></stop>
            <stop stop-color="#FF493E" offset="100%"></stop>
        </linearGradient>
        <path d="M55,110 C24.6243388,110 0,85.3756612 0,55 C0,24.6243388 24.6243388,0 55,0 C85.3756612,0 110,24.6243388 110,55 C110,85.3756612 85.3756612,110 55,110 Z M38,34 C36.3431458,34 35,35.3431458 35,37 L35,41 C35,42.6568542 36.3431458,44 38,44 L40,44 C41.6568542,44 43,45.3431458 43,47 L43,73 C43,74.6568542 44.3431458,76 46,76 L50,76 C51.6568542,76 53,74.6568542 53,73 L53,47 C53,45.3431458 54.3431458,44 56,44 L72,44 C73.6568542,44 75,42.6568542 75,41 L75,37 C75,35.3431458 73.6568542,34 72,34 L38,34 Z M62,66 C60.3431458,66 59,67.3431458 59,69 L59,73 C59,74.6568542 60.3431458,76 62,76 L66,76 C67.6568542,76 69,74.6568542 69,73 L69,69 C69,67.3431458 67.6568542,66 66,66 L62,66 Z M62,50 C60.3431458,50 59,51.3431458 59,53 L59,57 C59,58.6568542 60.3431458,60 62,60 L66,60 C67.6568542,60 69,58.6568542 69,57 L69,53 C69,51.3431458 67.6568542,50 66,50 L62,50 Z" id="path-2"></path>
    </defs>
    <g id="GitHub" stroke="none" stroke-width="1" fill="none" fill-rule="evenodd">
        <g id="Banner" transform="translate(-252.000000, -93.000000)">
            <g transform="translate(250.000000, 93.000000)" id="Logotype">
                <g>
                    <path d="M339.952,227.36 C340.352002,227.36 341.061995,227.190002 342.082,226.85 C343.102005,226.509998 343.971996,226.34 344.692,226.34 C345.892006,226.34 346.961995,226.659997 347.902,227.3 C348.162001,227.500001 348.421999,227.719999 348.682,227.96 C348.942001,228.200001 349.201999,228.479998 349.462,228.8 C348.681996,229.480003 348.112002,230.079997 347.752,230.6 C347.091997,231.520005 346.762,232.549994 346.762,233.69 C346.762,234.930006 347.111997,236.049995 347.812,237.05 C348.492003,238.030005 349.281995,238.659999 350.182,238.94 C349.981999,239.540003 349.732002,240.154997 349.432,240.785 C349.131999,241.415003 348.772002,242.049997 348.352,242.69 C347.071994,244.63001 345.782007,245.6 344.482,245.6 C343.941997,245.6 343.232004,245.440002 342.352,245.12 C341.491996,244.819998 340.742003,244.67 340.102,244.67 C339.441997,244.67 338.722004,244.829998 337.942,245.15 C337.101996,245.490002 336.442002,245.66 335.962,245.66 C334.441992,245.66 332.942007,244.370013 331.462,241.79 C329.981993,239.229987 329.242,236.710012 329.242,234.23 C329.242,231.949989 329.801994,230.080007 330.922,228.62 C332.062006,227.179993 333.491991,226.46 335.212,226.46 C335.952004,226.46 336.841995,226.609998 337.882,226.91 C338.942005,227.210002 339.631998,227.36 339.952,227.36 Z M344.542,221.3 C344.542,221.940003 344.392001,222.629996 344.092,223.37 C343.791998,224.110004 343.332003,224.799997 342.712,225.44 C342.131997,225.980003 341.582003,226.339999 341.062,226.52 C340.681998,226.620001 340.172003,226.7 339.532,226.76 C339.552,225.279993 339.936996,223.995005 340.687,222.905 C341.437004,221.814995 342.691991,221.070002 344.452,220.67 C344.492,220.810001 344.517,220.93 344.527,221.03 C344.537,221.13 344.542,221.22 344.542,221.3 Z M363.508,227.92 L361.128,227.92 L361.128,225.008 L363.508,225.008 L363.508,227.92 Z M361.128,230.524 L363.508,230.524 L363.508,245 L361.128,245 L361.128,230.524 Z M369.136,235.004 C369.136,236.012005 369.266665,237.005995 369.528,237.986 C369.789335,238.966005 370.199997,239.847996 370.76,240.632 C371.320003,241.416004 372.038662,242.045998 372.916,242.522 C373.793338,242.998002 374.838661,243.236 376.052,243.236 C377.265339,243.236 378.310662,242.998002 379.188,242.522 C380.065338,242.045998 380.783997,241.416004 381.344,240.632 C381.904003,239.847996 382.314665,238.966005 382.576,237.986 C382.837335,237.005995 382.968,236.012005 382.968,235.004 C382.968,233.995995 382.837335,233.002005 382.576,232.022 C382.314665,231.041995 381.904003,230.160004 381.344,229.376 C380.783997,228.591996 380.065338,227.962002 379.188,227.486 C378.310662,227.009998 377.265339,226.772 376.052,226.772 C374.838661,226.772 373.793338,227.009998 372.916,227.486 C372.038662,227.962002 371.320003,228.591996 370.76,229.376 C370.199997,230.160004 369.789335,231.041995 369.528,232.022 C369.266665,233.002005 369.136,233.995995 369.136,235.004 Z M366.476,235.004 C366.476,233.641327 366.676665,232.330006 367.078,231.07 C367.479335,229.809994 368.081329,228.694672 368.884,227.724 C369.686671,226.753328 370.685327,225.97867 371.88,225.4 C373.074673,224.82133 374.465325,224.532 376.052,224.532 C377.638675,224.532 379.029327,224.82133 380.224,225.4 C381.418673,225.97867 382.417329,226.753328 383.22,227.724 C384.022671,228.694672 384.624665,229.809994 385.026,231.07 C385.427335,232.330006 385.628,233.641327 385.628,235.004 C385.628,236.366673 385.427335,237.677994 385.026,238.938 C384.624665,240.198006 384.022671,241.313328 383.22,242.284 C382.417329,243.254672 381.418673,244.024664 380.224,244.594 C379.029327,245.163336 377.638675,245.448 376.052,245.448 C374.465325,245.448 373.074673,245.163336 371.88,244.594 C370.685327,244.024664 369.686671,243.254672 368.884,242.284 C368.081329,241.313328 367.479335,240.198006 367.078,238.938 C366.676665,237.677994 366.476,236.366673 366.476,235.004 Z M400.44,230.86 C400.290666,229.422659 399.772671,228.382003 398.886,227.738 C397.999329,227.093997 396.86534,226.772 395.484,226.772 C394.923997,226.772 394.373336,226.827999 393.832,226.94 C393.290664,227.052001 392.810002,227.238665 392.39,227.5 C391.969998,227.761335 391.634001,228.111331 391.382,228.55 C391.129999,228.988669 391.004,229.534663 391.004,230.188 C391.004,230.804003 391.185998,231.303331 391.55,231.686 C391.914002,232.068669 392.39933,232.381332 393.006,232.624 C393.61267,232.866668 394.298663,233.067333 395.064,233.226 C395.829337,233.384667 396.608663,233.557332 397.402,233.744 C398.195337,233.930668 398.974663,234.149999 399.74,234.402 C400.505337,234.654001 401.19133,234.994665 401.798,235.424 C402.40467,235.853335 402.889998,236.394663 403.254,237.048 C403.618002,237.701337 403.8,238.522662 403.8,239.512 C403.8,240.576005 403.562002,241.485996 403.086,242.242 C402.609998,242.998004 401.99867,243.613998 401.252,244.09 C400.50533,244.566002 399.670005,244.911332 398.746,245.126 C397.821995,245.340668 396.902671,245.448 395.988,245.448 C394.867994,245.448 393.808672,245.308001 392.81,245.028 C391.811328,244.747999 390.934004,244.323336 390.178,243.754 C389.421996,243.184664 388.824669,242.456671 388.386,241.57 C387.947331,240.683329 387.728,239.633339 387.728,238.42 L390.248,238.42 C390.248,239.260004 390.411332,239.98333 390.738,240.59 C391.064668,241.19667 391.493997,241.695998 392.026,242.088 C392.558003,242.480002 393.178663,242.769332 393.888,242.956 C394.597337,243.142668 395.32533,243.236 396.072,243.236 C396.669336,243.236 397.27133,243.180001 397.878,243.068 C398.48467,242.955999 399.030664,242.764668 399.516,242.494 C400.001336,242.223332 400.393332,241.854669 400.692,241.388 C400.990668,240.921331 401.14,240.324004 401.14,239.596 C401.14,238.90533 400.958002,238.345335 400.594,237.916 C400.229998,237.486665 399.74467,237.136668 399.138,236.866 C398.53133,236.595332 397.845337,236.376001 397.08,236.208 C396.314663,236.039999 395.535337,235.867334 394.742,235.69 C393.948663,235.512666 393.169337,235.307334 392.404,235.074 C391.638663,234.840666 390.95267,234.532669 390.346,234.15 C389.73933,233.767331 389.254002,233.27267 388.89,232.666 C388.525998,232.05933 388.344,231.298671 388.344,230.384 C388.344,229.375995 388.549331,228.503337 388.96,227.766 C389.370669,227.028663 389.916663,226.422002 390.598,225.946 C391.279337,225.469998 392.053996,225.115334 392.922,224.882 C393.790004,224.648665 394.681329,224.532 395.596,224.532 C396.622672,224.532 397.574662,224.653332 398.452,224.896 C399.329338,225.138668 400.09933,225.521331 400.762,226.044 C401.42467,226.566669 401.947331,227.224663 402.33,228.018 C402.712669,228.811337 402.922666,229.758661 402.96,230.86 L400.44,230.86 Z M420.32,232.708 C420.600001,232.521332 420.898665,232.316001 421.216,232.092 C421.533335,231.867999 421.822665,231.616001 422.084,231.336 C422.345335,231.055999 422.559999,230.743335 422.728,230.398 C422.896001,230.052665 422.98,229.665335 422.98,229.236 C422.98,228.65733 422.774669,228.158002 422.364,227.738 C421.953331,227.317998 421.393337,227.108 420.684,227.108 C420.123997,227.108 419.601336,227.280665 419.116,227.626 C418.630664,227.971335 418.388,228.507996 418.388,229.236 C418.388,229.534668 418.448666,229.833332 418.57,230.132 C418.691334,230.430668 418.845332,230.724665 419.032,231.014 C419.218668,231.303335 419.423999,231.587999 419.648,231.868 L420.32,232.708 Z M425.444,242.508 C424.846664,243.441338 424.030005,244.141331 422.994,244.608 C421.957995,245.074669 420.889339,245.308 419.788,245.308 C418.443993,245.308 417.361337,245.102669 416.54,244.692 C415.718663,244.281331 415.084002,243.78667 414.636,243.208 C414.187998,242.62933 413.894001,242.032003 413.754,241.416 C413.613999,240.799997 413.544,240.286669 413.544,239.876 C413.544,239.091996 413.669999,238.401336 413.922,237.804 C414.174001,237.206664 414.509998,236.670002 414.93,236.194 C415.350002,235.717998 415.844664,235.288669 416.414,234.906 C416.983336,234.523331 417.58533,234.164002 418.22,233.828 C417.939999,233.435998 417.669335,233.062668 417.408,232.708 C417.146665,232.353332 416.908668,231.994002 416.694,231.63 C416.479332,231.265998 416.311334,230.883335 416.19,230.482 C416.068666,230.080665 416.008,229.628003 416.008,229.124 C416.008,228.582664 416.105999,228.064669 416.302,227.57 C416.498001,227.075331 416.787331,226.636669 417.17,226.254 C417.552669,225.871331 418.023997,225.568001 418.584,225.344 C419.144003,225.119999 419.787996,225.008 420.516,225.008 C421.132003,225.008 421.733997,225.091999 422.322,225.26 C422.910003,225.428001 423.427998,225.684665 423.876,226.03 C424.324002,226.375335 424.683332,226.804664 424.954,227.318 C425.224668,227.831336 425.36,228.423997 425.36,229.096 C425.36,229.693336 425.257334,230.248664 425.052,230.762 C424.846666,231.275336 424.566668,231.746665 424.212,232.176 C423.857332,232.605335 423.456002,232.992665 423.008,233.338 C422.559998,233.683335 422.093336,233.995999 421.608,234.276 L425.22,238.672 C425.593335,237.626661 425.808,236.590672 425.864,235.564 L428.132,235.564 C428.076,236.161336 428.015334,236.669998 427.95,237.09 C427.884666,237.510002 427.800667,237.897332 427.698,238.252 C427.595333,238.606668 427.469334,238.956665 427.32,239.302 C427.170666,239.647335 426.993334,240.043998 426.788,240.492 L430.68,245 L427.572,245 L425.444,242.508 Z M419.536,235.34 C419.069331,235.601335 418.626002,235.871999 418.206,236.152 C417.785998,236.432001 417.417335,236.749332 417.1,237.104 C416.782665,237.458668 416.530668,237.855331 416.344,238.294 C416.157332,238.732669 416.064,239.250664 416.064,239.848 C416.064,240.352003 416.171332,240.813998 416.386,241.234 C416.600668,241.654002 416.885332,242.008665 417.24,242.298 C417.594668,242.587335 418.000664,242.815999 418.458,242.984 C418.915336,243.152001 419.386664,243.236 419.872,243.236 C420.786671,243.236 421.60333,243.021335 422.322,242.592 C423.04067,242.162665 423.642664,241.584004 424.128,240.856 L419.536,235.34 Z M443.14,230.524 L446.024,230.524 L446.024,232.624 L443.14,232.624 L443.14,241.612 C443.14,241.892001 443.163333,242.115999 443.21,242.284 C443.256667,242.452001 443.345333,242.582666 443.476,242.676 C443.606667,242.769334 443.788665,242.83 444.022,242.858 C444.255335,242.886 444.558665,242.9 444.932,242.9 L446.024,242.9 L446.024,245 L444.204,245 C443.587997,245 443.060669,244.958 442.622,244.874 C442.183331,244.79 441.828668,244.636001 441.558,244.412 C441.287332,244.187999 441.086667,243.870669 440.956,243.46 C440.825333,243.049331 440.76,242.508003 440.76,241.836 L440.76,232.624 L438.296,232.624 L438.296,230.524 L440.76,230.524 L440.76,226.184 L443.14,226.184 L443.14,230.524 Z M455.18,245 L452.632,245 L447.256,230.524 L449.916,230.524 L453.976,242.592 L454.032,242.592 L457.98,230.524 L460.472,230.524 L455.18,245 Z M464.588,235.004 C464.588,236.012005 464.718665,237.005995 464.98,237.986 C465.241335,238.966005 465.651997,239.847996 466.212,240.632 C466.772003,241.416004 467.490662,242.045998 468.368,242.522 C469.245338,242.998002 470.290661,243.236 471.504,243.236 C472.717339,243.236 473.762662,242.998002 474.64,242.522 C475.517338,242.045998 476.235997,241.416004 476.796,240.632 C477.356003,239.847996 477.766665,238.966005 478.028,237.986 C478.289335,237.005995 478.42,236.012005 478.42,235.004 C478.42,233.995995 478.289335,233.002005 478.028,232.022 C477.766665,231.041995 477.356003,230.160004 476.796,229.376 C476.235997,228.591996 475.517338,227.962002 474.64,227.486 C473.762662,227.009998 472.717339,226.772 471.504,226.772 C470.290661,226.772 469.245338,227.009998 468.368,227.486 C467.490662,227.962002 466.772003,228.591996 466.212,229.376 C465.651997,230.160004 465.241335,231.041995 464.98,232.022 C464.718665,233.002005 464.588,233.995995 464.588,235.004 Z M461.928,235.004 C461.928,233.641327 462.128665,232.330006 462.53,231.07 C462.931335,229.809994 463.533329,228.694672 464.336,227.724 C465.138671,226.753328 466.137327,225.97867 467.332,225.4 C468.526673,224.82133 469.917325,224.532 471.504,224.532 C473.090675,224.532 474.481327,224.82133 475.676,225.4 C476.870673,225.97867 477.869329,226.753328 478.672,227.724 C479.474671,228.694672 480.076665,229.809994 480.478,231.07 C480.879335,232.330006 481.08,233.641327 481.08,235.004 C481.08,236.366673 480.879335,237.677994 480.478,238.938 C480.076665,240.198006 479.474671,241.313328 478.672,242.284 C477.869329,243.254672 476.870673,244.024664 475.676,244.594 C474.481327,245.163336 473.090675,245.448 471.504,245.448 C469.917325,245.448 468.526673,245.163336 467.332,244.594 C466.137327,244.024664 465.138671,243.254672 464.336,242.284 C463.533329,241.313328 462.931335,240.198006 462.53,238.938 C462.128665,237.677994 461.928,236.366673 461.928,235.004 Z M495.892,230.86 C495.742666,229.422659 495.224671,228.382003 494.338,227.738 C493.451329,227.093997 492.31734,226.772 490.936,226.772 C490.375997,226.772 489.825336,226.827999 489.284,226.94 C488.742664,227.052001 488.262002,227.238665 487.842,227.5 C487.421998,227.761335 487.086001,228.111331 486.834,228.55 C486.581999,228.988669 486.456,229.534663 486.456,230.188 C486.456,230.804003 486.637998,231.303331 487.002,231.686 C487.366002,232.068669 487.85133,232.381332 488.458,232.624 C489.06467,232.866668 489.750663,233.067333 490.516,233.226 C491.281337,233.384667 492.060663,233.557332 492.854,233.744 C493.647337,233.930668 494.426663,234.149999 495.192,234.402 C495.957337,234.654001 496.64333,234.994665 497.25,235.424 C497.85667,235.853335 498.341998,236.394663 498.706,237.048 C499.070002,237.701337 499.252,238.522662 499.252,239.512 C499.252,240.576005 499.014002,241.485996 498.538,242.242 C498.061998,242.998004 497.45067,243.613998 496.704,244.09 C495.95733,244.566002 495.122005,244.911332 494.198,245.126 C493.273995,245.340668 492.354671,245.448 491.44,245.448 C490.319994,245.448 489.260672,245.308001 488.262,245.028 C487.263328,244.747999 486.386004,244.323336 485.63,243.754 C484.873996,243.184664 484.276669,242.456671 483.838,241.57 C483.399331,240.683329 483.18,239.633339 483.18,238.42 L485.7,238.42 C485.7,239.260004 485.863332,239.98333 486.19,240.59 C486.516668,241.19667 486.945997,241.695998 487.478,242.088 C488.010003,242.480002 488.630663,242.769332 489.34,242.956 C490.049337,243.142668 490.77733,243.236 491.524,243.236 C492.121336,243.236 492.72333,243.180001 493.33,243.068 C493.93667,242.955999 494.482664,242.764668 494.968,242.494 C495.453336,242.223332 495.845332,241.854669 496.144,241.388 C496.442668,240.921331 496.592,240.324004 496.592,239.596 C496.592,238.90533 496.410002,238.345335 496.046,237.916 C495.681998,237.486665 495.19667,237.136668 494.59,236.866 C493.98333,236.595332 493.297337,236.376001 492.532,236.208 C491.766663,236.039999 490.987337,235.867334 490.194,235.69 C489.400663,235.512666 488.621337,235.307334 487.856,235.074 C487.090663,234.840666 486.40467,234.532669 485.798,234.15 C485.19133,233.767331 484.706002,233.27267 484.342,232.666 C483.977998,232.05933 483.796,231.298671 483.796,230.384 C483.796,229.375995 484.001331,228.503337 484.412,227.766 C484.822669,227.028663 485.368663,226.422002 486.05,225.946 C486.731337,225.469998 487.505996,225.115334 488.374,224.882 C489.242004,224.648665 490.133329,224.532 491.048,224.532 C492.074672,224.532 493.026662,224.653332 493.904,224.896 C494.781338,225.138668 495.55133,225.521331 496.214,226.044 C496.87667,226.566669 497.399331,227.224663 497.782,228.018 C498.164669,228.811337 498.374666,229.758661 498.412,230.86 L495.892,230.86 Z" id="Platforms" fill="#000000"></path>
                    <path d="M2.71,225.008 L16.514,225.008 L16.514,227.248 L5.37,227.248 L5.37,233.604 L15.758,233.604 L15.758,235.844 L5.37,235.844 L5.37,242.76 L16.598,242.76 L16.598,245 L2.71,245 L2.71,225.008 Z M25.11,246.932 C24.8299986,247.641337 24.554668,248.238664 24.284,248.724 C24.013332,249.209336 23.7146683,249.605998 23.388,249.914 C23.0613317,250.222002 22.6973353,250.445999 22.296,250.586 C21.8946647,250.726001 21.4326693,250.796 20.91,250.796 C20.6299986,250.796 20.3500014,250.777334 20.07,250.74 C19.7899986,250.702666 19.5193346,250.637334 19.258,250.544 L19.258,248.36 C19.4633344,248.453334 19.701332,248.532666 19.972,248.598 C20.242668,248.663334 20.4713324,248.696 20.658,248.696 C21.1433358,248.696 21.5493317,248.579335 21.876,248.346 C22.2026683,248.112665 22.4499992,247.781335 22.618,247.352 L23.598,244.916 L17.858,230.524 L20.546,230.524 L24.774,242.368 L24.83,242.368 L28.89,230.524 L31.41,230.524 L25.11,246.932 Z M43.478,236.376 C43.4406665,235.815997 43.3146677,235.284003 43.1,234.78 C42.8853323,234.275997 42.5960018,233.842002 42.232,233.478 C41.8679982,233.113998 41.4386691,232.824668 40.944,232.61 C40.4493309,232.395332 39.9033363,232.288 39.306,232.288 C38.6899969,232.288 38.1346691,232.395332 37.64,232.61 C37.1453309,232.824668 36.7206684,233.118665 36.366,233.492 C36.0113316,233.865335 35.7313344,234.299331 35.526,234.794 C35.3206656,235.288669 35.1993335,235.815997 35.162,236.376 L43.478,236.376 Z M45.774,240.408 C45.4566651,242.032008 44.7566721,243.254663 43.674,244.076 C42.5913279,244.897337 41.2286749,245.308 39.586,245.308 C38.4286609,245.308 37.4253376,245.121335 36.576,244.748 C35.7266624,244.374665 35.0126696,243.852003 34.434,243.18 C33.8553304,242.507997 33.4213348,241.705338 33.132,240.772 C32.8426652,239.838662 32.6793335,238.821339 32.642,237.72 C32.642,236.618661 32.8099983,235.610671 33.146,234.696 C33.4820017,233.781329 33.9533303,232.988003 34.56,232.316 C35.1666697,231.643997 35.8853292,231.121335 36.716,230.748 C37.5466708,230.374665 38.4566617,230.188 39.446,230.188 C40.7340064,230.188 41.8026624,230.453997 42.652,230.986 C43.5013376,231.518003 44.1826641,232.194663 44.696,233.016 C45.2093359,233.837337 45.563999,234.733328 45.76,235.704 C45.956001,236.674672 46.0353335,237.598662 45.998,238.476 L35.162,238.476 C35.1433332,239.11067 35.2179992,239.712664 35.386,240.282 C35.5540008,240.851336 35.8246648,241.355331 36.198,241.794 C36.5713352,242.232669 37.0473304,242.582665 37.626,242.844 C38.2046696,243.105335 38.8859961,243.236 39.67,243.236 C40.678005,243.236 41.5039968,243.002669 42.148,242.536 C42.7920032,242.069331 43.2166656,241.360005 43.422,240.408 L45.774,240.408 Z M48.07,236.096 L56.162,236.096 L56.162,238.336 L48.07,238.336 L48.07,236.096 Z M69.182,235.172 C68.9953324,234.257329 68.6033363,233.548003 68.006,233.044 C67.4086637,232.539997 66.606005,232.288 65.598,232.288 C64.739329,232.288 64.0206696,232.446665 63.442,232.764 C62.8633304,233.081335 62.4013351,233.501331 62.056,234.024 C61.7106649,234.546669 61.4633341,235.148663 61.314,235.83 C61.1646659,236.511337 61.09,237.215996 61.09,237.944 C61.09,238.616003 61.1693325,239.26933 61.328,239.904 C61.4866675,240.53867 61.7339983,241.103331 62.07,241.598 C62.4060017,242.092669 62.844664,242.489332 63.386,242.788 C63.927336,243.086668 64.5713296,243.236 65.318,243.236 C66.4940059,243.236 67.41333,242.928003 68.076,242.312 C68.73867,241.695997 69.1446659,240.828006 69.294,239.708 L71.73,239.708 C71.4686654,241.500009 70.8013387,242.881328 69.728,243.852 C68.6546613,244.822672 67.1940092,245.308 65.346,245.308 C64.2446612,245.308 63.2693376,245.130668 62.42,244.776 C61.5706624,244.421332 60.8613362,243.917337 60.292,243.264 C59.7226638,242.610663 59.2933348,241.831338 59.004,240.926 C58.7146652,240.020662 58.57,239.026672 58.57,237.944 C58.57,236.861328 58.7099986,235.848671 58.99,234.906 C59.2700014,233.963329 59.6946638,233.142003 60.264,232.442 C60.8333362,231.741996 61.547329,231.191335 62.406,230.79 C63.264671,230.388665 64.2633276,230.188 65.402,230.188 C66.2233374,230.188 66.9933297,230.285999 67.712,230.482 C68.4306703,230.678001 69.0653306,230.981331 69.616,231.392 C70.1666694,231.802669 70.6193316,232.320664 70.974,232.946 C71.3286684,233.571336 71.5526662,234.313329 71.646,235.172 L69.182,235.172 Z M87.214,244.944 C86.8033313,245.186668 86.2340036,245.308 85.506,245.308 C84.8899969,245.308 84.4000018,245.135335 84.036,244.79 C83.6719982,244.444665 83.49,243.880004 83.49,243.096 C82.8366634,243.880004 82.0760043,244.444665 81.208,244.79 C80.3399957,245.135335 79.402005,245.308 78.394,245.308 C77.7406634,245.308 77.1200029,245.233334 76.532,245.084 C75.9439971,244.934666 75.4353355,244.701335 75.006,244.384 C74.5766645,244.066665 74.2360013,243.651336 73.984,243.138 C73.7319987,242.624664 73.606,242.004004 73.606,241.276 C73.606,240.454663 73.7459986,239.782669 74.026,239.26 C74.3060014,238.737331 74.6746644,238.312668 75.132,237.986 C75.5893356,237.659332 76.1119971,237.412001 76.7,237.244 C77.2880029,237.075999 77.8899969,236.936001 78.506,236.824 C79.1593366,236.693333 79.7799971,236.595334 80.368,236.53 C80.9560029,236.464666 81.4739978,236.371334 81.922,236.25 C82.3700022,236.128666 82.7246654,235.951335 82.986,235.718 C83.2473346,235.484666 83.378,235.144002 83.378,234.696 C83.378,234.173331 83.280001,233.753335 83.084,233.436 C82.887999,233.118665 82.6360015,232.876001 82.328,232.708 C82.0199985,232.539999 81.6746686,232.428 81.292,232.372 C80.9093314,232.316 80.5313352,232.288 80.158,232.288 C79.149995,232.288 78.3100034,232.479331 77.638,232.862 C76.9659966,233.244669 76.6020003,233.967995 76.546,235.032 L74.166,235.032 C74.2033335,234.135996 74.3899983,233.380003 74.726,232.764 C75.0620017,232.147997 75.5099972,231.648669 76.07,231.266 C76.6300028,230.883331 77.2693297,230.608001 77.988,230.44 C78.7066703,230.271999 79.4766626,230.188 80.298,230.188 C80.9513366,230.188 81.5999968,230.234666 82.244,230.328 C82.8880032,230.421334 83.4713307,230.612665 83.994,230.902 C84.5166693,231.191335 84.9366651,231.597331 85.254,232.12 C85.5713349,232.642669 85.73,233.323996 85.73,234.164 L85.73,241.612 C85.73,242.172003 85.7626663,242.582665 85.828,242.844 C85.8933337,243.105335 86.1126648,243.236 86.486,243.236 C86.6913344,243.236 86.9339986,243.189334 87.214,243.096 L87.214,244.944 Z M83.35,237.524 C83.0513318,237.748001 82.6593358,237.911333 82.174,238.014 C81.6886642,238.116667 81.1800027,238.200666 80.648,238.266 C80.1159973,238.331334 79.579336,238.406 79.038,238.49 C78.496664,238.574 78.0113355,238.709332 77.582,238.896 C77.1526645,239.082668 76.802668,239.348665 76.532,239.694 C76.261332,240.039335 76.126,240.510664 76.126,241.108 C76.126,241.500002 76.2053325,241.831332 76.364,242.102 C76.5226675,242.372668 76.7279987,242.591999 76.98,242.76 C77.2320013,242.928001 77.5259983,243.049333 77.862,243.124 C78.1980017,243.198667 78.5526648,243.236 78.926,243.236 C79.7100039,243.236 80.3819972,243.128668 80.942,242.914 C81.5020028,242.699332 81.9593316,242.428668 82.314,242.102 C82.6686684,241.775332 82.9299992,241.420669 83.098,241.038 C83.2660008,240.655331 83.35,240.296002 83.35,239.96 L83.35,237.524 Z M89.426,230.524 L91.666,230.524 L91.666,232.82 L91.722,232.82 C92.7113383,231.065325 94.2793226,230.188 96.426,230.188 C97.3780048,230.188 98.1713302,230.318665 98.806,230.58 C99.4406698,230.841335 99.953998,231.205331 100.346,231.672 C100.738002,232.138669 101.013333,232.693997 101.172,233.338 C101.330667,233.982003 101.41,234.695996 101.41,235.48 L101.41,245 L99.03,245 L99.03,235.2 C99.03,234.303996 98.7686693,233.594669 98.246,233.072 C97.7233307,232.549331 97.0046712,232.288 96.09,232.288 C95.3619964,232.288 94.7320027,232.399999 94.2,232.624 C93.6679973,232.848001 93.2246684,233.165331 92.87,233.576 C92.5153316,233.986669 92.2493342,234.467331 92.072,235.018 C91.8946658,235.568669 91.806,236.170663 91.806,236.824 L91.806,245 L89.426,245 L89.426,230.524 Z M106.73,237.888 C106.73,238.560003 106.818666,239.217997 106.996,239.862 C107.173334,240.506003 107.443998,241.079997 107.808,241.584 C108.172002,242.088003 108.638664,242.489332 109.208,242.788 C109.777336,243.086668 110.444663,243.236 111.21,243.236 C112.012671,243.236 112.693997,243.077335 113.254,242.76 C113.814003,242.442665 114.271332,242.027336 114.626,241.514 C114.980668,241.000664 115.237333,240.417337 115.396,239.764 C115.554667,239.110663 115.634,238.448003 115.634,237.776 C115.634,237.066663 115.550001,236.38067 115.382,235.718 C115.213999,235.05533 114.948002,234.472003 114.584,233.968 C114.219998,233.463997 113.74867,233.058002 113.17,232.75 C112.59133,232.441998 111.891337,232.288 111.07,232.288 C110.267329,232.288 109.586003,232.446665 109.026,232.764 C108.465997,233.081335 108.018002,233.501331 107.682,234.024 C107.345998,234.546669 107.103334,235.143997 106.954,235.816 C106.804666,236.488003 106.73,237.178663 106.73,237.888 Z M117.93,245 L115.55,245 L115.55,243.04 L115.494,243.04 C115.101998,243.842671 114.486004,244.421332 113.646,244.776 C112.805996,245.130668 111.882005,245.308 110.874,245.308 C109.753994,245.308 108.778671,245.102669 107.948,244.692 C107.117329,244.281331 106.426669,243.73067 105.876,243.04 C105.325331,242.34933 104.910001,241.546671 104.63,240.632 C104.349999,239.717329 104.21,238.746672 104.21,237.72 C104.21,236.693328 104.345332,235.722671 104.616,234.808 C104.886668,233.893329 105.297331,233.095337 105.848,232.414 C106.398669,231.732663 107.089329,231.191335 107.92,230.79 C108.750671,230.388665 109.716661,230.188 110.818,230.188 C111.191335,230.188 111.592665,230.225333 112.022,230.3 C112.451335,230.374667 112.880665,230.500666 113.31,230.678 C113.739335,230.855334 114.145331,231.088665 114.528,231.378 C114.910669,231.667335 115.232665,232.026665 115.494,232.456 L115.55,232.456 L115.55,225.008 L117.93,225.008 L117.93,245 Z M127.282,246.932 C127.001999,247.641337 126.726668,248.238664 126.456,248.724 C126.185332,249.209336 125.886668,249.605998 125.56,249.914 C125.233332,250.222002 124.869335,250.445999 124.468,250.586 C124.066665,250.726001 123.604669,250.796 123.082,250.796 C122.801999,250.796 122.522001,250.777334 122.242,250.74 C121.961999,250.702666 121.691335,250.637334 121.43,250.544 L121.43,248.36 C121.635334,248.453334 121.873332,248.532666 122.144,248.598 C122.414668,248.663334 122.643332,248.696 122.83,248.696 C123.315336,248.696 123.721332,248.579335 124.048,248.346 C124.374668,248.112665 124.621999,247.781335 124.79,247.352 L125.77,244.916 L120.03,230.524 L122.718,230.524 L126.946,242.368 L127.002,242.368 L131.062,230.524 L133.582,230.524 L127.282,246.932 Z M156.206,244.944 C155.795331,245.186668 155.226004,245.308 154.498,245.308 C153.881997,245.308 153.392002,245.135335 153.028,244.79 C152.663998,244.444665 152.482,243.880004 152.482,243.096 C151.828663,243.880004 151.068004,244.444665 150.2,244.79 C149.331996,245.135335 148.394005,245.308 147.386,245.308 C146.732663,245.308 146.112003,245.233334 145.524,245.084 C144.935997,244.934666 144.427335,244.701335 143.998,244.384 C143.568665,244.066665 143.228001,243.651336 142.976,243.138 C142.723999,242.624664 142.598,242.004004 142.598,241.276 C142.598,240.454663 142.737999,239.782669 143.018,239.26 C143.298001,238.737331 143.666664,238.312668 144.124,237.986 C144.581336,237.659332 145.103997,237.412001 145.692,237.244 C146.280003,237.075999 146.881997,236.936001 147.498,236.824 C148.151337,236.693333 148.771997,236.595334 149.36,236.53 C149.948003,236.464666 150.465998,236.371334 150.914,236.25 C151.362002,236.128666 151.716665,235.951335 151.978,235.718 C152.239335,235.484666 152.37,235.144002 152.37,234.696 C152.37,234.173331 152.272001,233.753335 152.076,233.436 C151.879999,233.118665 151.628002,232.876001 151.32,232.708 C151.011998,232.539999 150.666669,232.428 150.284,232.372 C149.901331,232.316 149.523335,232.288 149.15,232.288 C148.141995,232.288 147.302003,232.479331 146.63,232.862 C145.957997,233.244669 145.594,233.967995 145.538,235.032 L143.158,235.032 C143.195334,234.135996 143.381998,233.380003 143.718,232.764 C144.054002,232.147997 144.501997,231.648669 145.062,231.266 C145.622003,230.883331 146.26133,230.608001 146.98,230.44 C147.69867,230.271999 148.468663,230.188 149.29,230.188 C149.943337,230.188 150.591997,230.234666 151.236,230.328 C151.880003,230.421334 152.463331,230.612665 152.986,230.902 C153.508669,231.191335 153.928665,231.597331 154.246,232.12 C154.563335,232.642669 154.722,233.323996 154.722,234.164 L154.722,241.612 C154.722,242.172003 154.754666,242.582665 154.82,242.844 C154.885334,243.105335 155.104665,243.236 155.478,243.236 C155.683334,243.236 155.925999,243.189334 156.206,243.096 L156.206,244.944 Z M152.342,237.524 C152.043332,237.748001 151.651336,237.911333 151.166,238.014 C150.680664,238.116667 150.172003,238.200666 149.64,238.266 C149.107997,238.331334 148.571336,238.406 148.03,238.49 C147.488664,238.574 147.003335,238.709332 146.574,238.896 C146.144665,239.082668 145.794668,239.348665 145.524,239.694 C145.253332,240.039335 145.118,240.510664 145.118,241.108 C145.118,241.500002 145.197333,241.831332 145.356,242.102 C145.514667,242.372668 145.719999,242.591999 145.972,242.76 C146.224001,242.928001 146.517998,243.049333 146.854,243.124 C147.190002,243.198667 147.544665,243.236 147.918,243.236 C148.702004,243.236 149.373997,243.128668 149.934,242.914 C150.494003,242.699332 150.951332,242.428668 151.306,242.102 C151.660668,241.775332 151.921999,241.420669 152.09,241.038 C152.258001,240.655331 152.342,240.296002 152.342,239.96 L152.342,237.524 Z M158.418,230.524 L160.658,230.524 L160.658,232.82 L160.714,232.82 C161.703338,231.065325 163.271323,230.188 165.418,230.188 C166.370005,230.188 167.16333,230.318665 167.798,230.58 C168.43267,230.841335 168.945998,231.205331 169.338,231.672 C169.730002,232.138669 170.005333,232.693997 170.164,233.338 C170.322667,233.982003 170.402,234.695996 170.402,235.48 L170.402,245 L168.022,245 L168.022,235.2 C168.022,234.303996 167.760669,233.594669 167.238,233.072 C166.715331,232.549331 165.996671,232.288 165.082,232.288 C164.353996,232.288 163.724003,232.399999 163.192,232.624 C162.659997,232.848001 162.216668,233.165331 161.862,233.576 C161.507332,233.986669 161.241334,234.467331 161.064,235.018 C160.886666,235.568669 160.798,236.170663 160.798,236.824 L160.798,245 L158.418,245 L158.418,230.524 Z M176.506,227.92 L174.126,227.92 L174.126,225.008 L176.506,225.008 L176.506,227.92 Z M174.126,230.524 L176.506,230.524 L176.506,245 L174.126,245 L174.126,230.524 Z M180.202,230.524 L182.442,230.524 L182.442,232.652 L182.498,232.652 C183.580672,231.009325 185.139323,230.188 187.174,230.188 C188.070004,230.188 188.881996,230.374665 189.61,230.748 C190.338004,231.121335 190.851332,231.755996 191.15,232.652 C191.635336,231.867996 192.274663,231.261335 193.068,230.832 C193.861337,230.402665 194.733995,230.188 195.686,230.188 C196.414004,230.188 197.071997,230.267333 197.66,230.426 C198.248003,230.584667 198.751998,230.831998 199.172,231.168 C199.592002,231.504002 199.918666,231.937997 200.152,232.47 C200.385334,233.002003 200.502,233.64133 200.502,234.388 L200.502,245 L198.122,245 L198.122,235.508 C198.122,235.059998 198.084667,234.640002 198.01,234.248 C197.935333,233.855998 197.795334,233.515335 197.59,233.226 C197.384666,232.936665 197.100002,232.708001 196.736,232.54 C196.371998,232.371999 195.90067,232.288 195.322,232.288 C194.145994,232.288 193.222003,232.623997 192.55,233.296 C191.877997,233.968003 191.542,234.863994 191.542,235.984 L191.542,245 L189.162,245 L189.162,235.508 C189.162,235.041331 189.12,234.612002 189.036,234.22 C188.952,233.827998 188.807334,233.487335 188.602,233.198 C188.396666,232.908665 188.121335,232.684667 187.776,232.526 C187.430665,232.367333 186.987336,232.288 186.446,232.288 C185.75533,232.288 185.162669,232.427999 184.668,232.708 C184.173331,232.988001 183.772002,233.323998 183.464,233.716 C183.155998,234.108002 182.932001,234.513998 182.792,234.934 C182.651999,235.354002 182.582,235.703999 182.582,235.984 L182.582,245 L180.202,245 L180.202,230.524 Z M216.91,244.944 C216.499331,245.186668 215.930004,245.308 215.202,245.308 C214.585997,245.308 214.096002,245.135335 213.732,244.79 C213.367998,244.444665 213.186,243.880004 213.186,243.096 C212.532663,243.880004 211.772004,244.444665 210.904,244.79 C210.035996,245.135335 209.098005,245.308 208.09,245.308 C207.436663,245.308 206.816003,245.233334 206.228,245.084 C205.639997,244.934666 205.131335,244.701335 204.702,244.384 C204.272665,244.066665 203.932001,243.651336 203.68,243.138 C203.427999,242.624664 203.302,242.004004 203.302,241.276 C203.302,240.454663 203.441999,239.782669 203.722,239.26 C204.002001,238.737331 204.370664,238.312668 204.828,237.986 C205.285336,237.659332 205.807997,237.412001 206.396,237.244 C206.984003,237.075999 207.585997,236.936001 208.202,236.824 C208.855337,236.693333 209.475997,236.595334 210.064,236.53 C210.652003,236.464666 211.169998,236.371334 211.618,236.25 C212.066002,236.128666 212.420665,235.951335 212.682,235.718 C212.943335,235.484666 213.074,235.144002 213.074,234.696 C213.074,234.173331 212.976001,233.753335 212.78,233.436 C212.583999,233.118665 212.332002,232.876001 212.024,232.708 C211.715998,232.539999 211.370669,232.428 210.988,232.372 C210.605331,232.316 210.227335,232.288 209.854,232.288 C208.845995,232.288 208.006003,232.479331 207.334,232.862 C206.661997,233.244669 206.298,233.967995 206.242,235.032 L203.862,235.032 C203.899334,234.135996 204.085998,233.380003 204.422,232.764 C204.758002,232.147997 205.205997,231.648669 205.766,231.266 C206.326003,230.883331 206.96533,230.608001 207.684,230.44 C208.40267,230.271999 209.172663,230.188 209.994,230.188 C210.647337,230.188 211.295997,230.234666 211.94,230.328 C212.584003,230.421334 213.167331,230.612665 213.69,230.902 C214.212669,231.191335 214.632665,231.597331 214.95,232.12 C215.267335,232.642669 215.426,233.323996 215.426,234.164 L215.426,241.612 C215.426,242.172003 215.458666,242.582665 215.524,242.844 C215.589334,243.105335 215.808665,243.236 216.182,243.236 C216.387334,243.236 216.629999,243.189334 216.91,243.096 L216.91,244.944 Z M213.046,237.524 C212.747332,237.748001 212.355336,237.911333 211.87,238.014 C211.384664,238.116667 210.876003,238.200666 210.344,238.266 C209.811997,238.331334 209.275336,238.406 208.734,238.49 C208.192664,238.574 207.707335,238.709332 207.278,238.896 C206.848665,239.082668 206.498668,239.348665 206.228,239.694 C205.957332,240.039335 205.822,240.510664 205.822,241.108 C205.822,241.500002 205.901333,241.831332 206.06,242.102 C206.218667,242.372668 206.423999,242.591999 206.676,242.76 C206.928001,242.928001 207.221998,243.049333 207.558,243.124 C207.894002,243.198667 208.248665,243.236 208.622,243.236 C209.406004,243.236 210.077997,243.128668 210.638,242.914 C211.198003,242.699332 211.655332,242.428668 212.01,242.102 C212.364668,241.775332 212.625999,241.420669 212.794,241.038 C212.962001,240.655331 213.046,240.296002 213.046,239.96 L213.046,237.524 Z M222.426,230.524 L225.31,230.524 L225.31,232.624 L222.426,232.624 L222.426,241.612 C222.426,241.892001 222.449333,242.115999 222.496,242.284 C222.542667,242.452001 222.631333,242.582666 222.762,242.676 C222.892667,242.769334 223.074666,242.83 223.308,242.858 C223.541335,242.886 223.844665,242.9 224.218,242.9 L225.31,242.9 L225.31,245 L223.49,245 C222.873997,245 222.346669,244.958 221.908,244.874 C221.469331,244.79 221.114668,244.636001 220.844,244.412 C220.573332,244.187999 220.372667,243.870669 220.242,243.46 C220.111333,243.049331 220.046,242.508003 220.046,241.836 L220.046,232.624 L217.582,232.624 L217.582,230.524 L220.046,230.524 L220.046,226.184 L222.426,226.184 L222.426,230.524 Z M230.462,227.92 L228.082,227.92 L228.082,225.008 L230.462,225.008 L230.462,227.92 Z M228.082,230.524 L230.462,230.524 L230.462,245 L228.082,245 L228.082,230.524 Z M235.894,237.776 C235.894,238.653338 236.010666,239.432663 236.244,240.114 C236.477335,240.795337 236.799331,241.364664 237.21,241.822 C237.620669,242.279336 238.101331,242.629332 238.652,242.872 C239.202669,243.114668 239.785997,243.236 240.402,243.236 C241.018003,243.236 241.601331,243.114668 242.152,242.872 C242.702669,242.629332 243.183331,242.279336 243.594,241.822 C244.004669,241.364664 244.326666,240.795337 244.56,240.114 C244.793335,239.432663 244.91,238.653338 244.91,237.776 C244.91,236.898662 244.793335,236.119337 244.56,235.438 C244.326666,234.756663 244.004669,234.182669 243.594,233.716 C243.183331,233.249331 242.702669,232.894668 242.152,232.652 C241.601331,232.409332 241.018003,232.288 240.402,232.288 C239.785997,232.288 239.202669,232.409332 238.652,232.652 C238.101331,232.894668 237.620669,233.249331 237.21,233.716 C236.799331,234.182669 236.477335,234.756663 236.244,235.438 C236.010666,236.119337 235.894,236.898662 235.894,237.776 Z M233.374,237.776 C233.374,236.711995 233.523332,235.718005 233.822,234.794 C234.120668,233.869995 234.568664,233.067337 235.166,232.386 C235.763336,231.704663 236.500662,231.168002 237.378,230.776 C238.255338,230.383998 239.263328,230.188 240.402,230.188 C241.559339,230.188 242.571996,230.383998 243.44,230.776 C244.308004,231.168002 245.040664,231.704663 245.638,232.386 C246.235336,233.067337 246.683332,233.869995 246.982,234.794 C247.280668,235.718005 247.43,236.711995 247.43,237.776 C247.43,238.840005 247.280668,239.829329 246.982,240.744 C246.683332,241.658671 246.235336,242.456663 245.638,243.138 C245.040664,243.819337 244.308004,244.351331 243.44,244.734 C242.571996,245.116669 241.559339,245.308 240.402,245.308 C239.263328,245.308 238.255338,245.116669 237.378,244.734 C236.500662,244.351331 235.763336,243.819337 235.166,243.138 C234.568664,242.456663 234.120668,241.658671 233.822,240.744 C233.523332,239.829329 233.374,238.840005 233.374,237.776 Z M250.23,230.524 L252.47,230.524 L252.47,232.82 L252.526,232.82 C253.515338,231.065325 255.083323,230.188 257.23,230.188 C258.182005,230.188 258.97533,230.318665 259.61,230.58 C260.24467,230.841335 260.757998,231.205331 261.15,231.672 C261.542002,232.138669 261.817333,232.693997 261.976,233.338 C262.134667,233.982003 262.214,234.695996 262.214,235.48 L262.214,245 L259.834,245 L259.834,235.2 C259.834,234.303996 259.572669,233.594669 259.05,233.072 C258.527331,232.549331 257.808671,232.288 256.894,232.288 C256.165996,232.288 255.536003,232.399999 255.004,232.624 C254.471997,232.848001 254.028668,233.165331 253.674,233.576 C253.319332,233.986669 253.053334,234.467331 252.876,235.018 C252.698666,235.568669 252.61,236.170663 252.61,236.824 L252.61,245 L250.23,245 L250.23,230.524 Z M267.254,240.436 C267.272667,240.958669 267.393999,241.401998 267.618,241.766 C267.842001,242.130002 268.135998,242.419332 268.5,242.634 C268.864002,242.848668 269.274664,243.002666 269.732,243.096 C270.189336,243.189334 270.660664,243.236 271.146,243.236 C271.519335,243.236 271.911331,243.208 272.322,243.152 C272.732669,243.096 273.110665,242.993334 273.456,242.844 C273.801335,242.694666 274.085999,242.475335 274.31,242.186 C274.534001,241.896665 274.646,241.528002 274.646,241.08 C274.646,240.463997 274.412669,239.997335 273.946,239.68 C273.479331,239.362665 272.896004,239.106001 272.196,238.91 C271.495996,238.713999 270.735337,238.536667 269.914,238.378 C269.092663,238.219333 268.332004,237.995335 267.632,237.706 C266.931997,237.416665 266.348669,237.010669 265.882,236.488 C265.415331,235.965331 265.182,235.237338 265.182,234.304 C265.182,233.575996 265.345332,232.950669 265.672,232.428 C265.998668,231.905331 266.418664,231.480668 266.932,231.154 C267.445336,230.827332 268.023997,230.584667 268.668,230.426 C269.312003,230.267333 269.95133,230.188 270.586,230.188 C271.407337,230.188 272.16333,230.257999 272.854,230.398 C273.54467,230.538001 274.155997,230.780665 274.688,231.126 C275.220003,231.471335 275.644665,231.937997 275.962,232.526 C276.279335,233.114003 276.466,233.846662 276.522,234.724 L274.142,234.724 C274.104666,234.257331 273.983334,233.870002 273.778,233.562 C273.572666,233.253998 273.311335,233.006668 272.994,232.82 C272.676665,232.633332 272.326669,232.498 271.944,232.414 C271.561331,232.33 271.174002,232.288 270.782,232.288 C270.427332,232.288 270.068002,232.316 269.704,232.372 C269.339998,232.428 269.008668,232.525999 268.71,232.666 C268.411332,232.806001 268.168668,232.992665 267.982,233.226 C267.795332,233.459335 267.702,233.762665 267.702,234.136 C267.702,234.546669 267.846665,234.887332 268.136,235.158 C268.425335,235.428668 268.793998,235.652666 269.242,235.83 C269.690002,236.007334 270.193997,236.156666 270.754,236.278 C271.314003,236.399334 271.873997,236.525333 272.434,236.656 C273.031336,236.786667 273.614664,236.945332 274.184,237.132 C274.753336,237.318668 275.257331,237.565998 275.696,237.874 C276.134669,238.182002 276.489332,238.569331 276.76,239.036 C277.030668,239.502669 277.166,240.08133 277.166,240.772 C277.166,241.649338 276.984002,242.37733 276.62,242.956 C276.255998,243.53467 275.780003,244.001332 275.192,244.356 C274.603997,244.710668 273.941337,244.957999 273.204,245.098 C272.466663,245.238001 271.734004,245.308 271.006,245.308 C270.203329,245.308 269.438004,245.224001 268.71,245.056 C267.981996,244.887999 267.338003,244.612669 266.778,244.23 C266.217997,243.847331 265.770002,243.343336 265.434,242.718 C265.097998,242.092664 264.911334,241.332004 264.874,240.436 L267.254,240.436 Z M288.562,232.624 L286.126,232.624 L286.126,230.524 L288.562,230.524 L288.562,228.368 C288.562,227.191994 288.902663,226.30067 289.584,225.694 C290.265337,225.08733 291.259327,224.784 292.566,224.784 C292.790001,224.784 293.046665,224.802666 293.336,224.84 C293.625335,224.877334 293.881999,224.933333 294.106,225.008 L294.106,227.08 C293.900666,227.005333 293.676668,226.954 293.434,226.926 C293.191332,226.898 292.967334,226.884 292.762,226.884 C292.18333,226.884 291.735335,226.995999 291.418,227.22 C291.100665,227.444001 290.942,227.87333 290.942,228.508 L290.942,230.524 L293.742,230.524 L293.742,232.624 L290.942,232.624 L290.942,245 L288.562,245 L288.562,232.624 Z M297.606,237.776 C297.606,238.653338 297.722666,239.432663 297.956,240.114 C298.189335,240.795337 298.511331,241.364664 298.922,241.822 C299.332669,242.279336 299.813331,242.629332 300.364,242.872 C300.914669,243.114668 301.497997,243.236 302.114,243.236 C302.730003,243.236 303.313331,243.114668 303.864,242.872 C304.414669,242.629332 304.895331,242.279336 305.306,241.822 C305.716669,241.364664 306.038666,240.795337 306.272,240.114 C306.505335,239.432663 306.622,238.653338 306.622,237.776 C306.622,236.898662 306.505335,236.119337 306.272,235.438 C306.038666,234.756663 305.716669,234.182669 305.306,233.716 C304.895331,233.249331 304.414669,232.894668 303.864,232.652 C303.313331,232.409332 302.730003,232.288 302.114,232.288 C301.497997,232.288 300.914669,232.409332 300.364,232.652 C299.813331,232.894668 299.332669,233.249331 298.922,233.716 C298.511331,234.182669 298.189335,234.756663 297.956,235.438 C297.722666,236.119337 297.606,236.898662 297.606,237.776 Z M295.086,237.776 C295.086,236.711995 295.235332,235.718005 295.534,234.794 C295.832668,233.869995 296.280664,233.067337 296.878,232.386 C297.475336,231.704663 298.212662,231.168002 299.09,230.776 C299.967338,230.383998 300.975328,230.188 302.114,230.188 C303.271339,230.188 304.283996,230.383998 305.152,230.776 C306.020004,231.168002 306.752664,231.704663 307.35,232.386 C307.947336,233.067337 308.395332,233.869995 308.694,234.794 C308.992668,235.718005 309.142,236.711995 309.142,237.776 C309.142,238.840005 308.992668,239.829329 308.694,240.744 C308.395332,241.658671 307.947336,242.456663 307.35,243.138 C306.752664,243.819337 306.020004,244.351331 305.152,244.734 C304.283996,245.116669 303.271339,245.308 302.114,245.308 C300.975328,245.308 299.967338,245.116669 299.09,244.734 C298.212662,244.351331 297.475336,243.819337 296.878,243.138 C296.280664,242.456663 295.832668,241.658671 295.534,240.744 C295.235332,239.829329 295.086,238.840005 295.086,237.776 Z M311.858,230.524 L314.098,230.524 L314.098,233.576 L314.154,233.576 C314.73267,232.399994 315.441996,231.532003 316.282,230.972 C317.122004,230.411997 318.185994,230.150666 319.474,230.188 L319.474,232.708 C318.521995,232.708 317.710003,232.838665 317.038,233.1 C316.365997,233.361335 315.824669,233.743997 315.414,234.248 C315.003331,234.752003 314.704668,235.36333 314.518,236.082 C314.331332,236.80067 314.238,237.626662 314.238,238.56 L314.238,245 L311.858,245 L311.858,230.524 Z" id="Lead" fill="#C4C4C4"></path>
                    <path d="M92.534,155.014 L116.691,155.014 L116.691,157.856 L95.866,157.856 L95.866,170.498 L115.368,170.498 L115.368,173.34 L95.866,173.34 L95.866,187.158 L116.936,187.158 L116.936,190 L92.534,190 L92.534,155.014 Z M120.709,172.458 C120.807,170.987993 121.117331,169.714005 121.64,168.636 C122.162669,167.557995 122.873162,166.676003 123.7715,165.99 C124.669838,165.303997 125.723327,164.797668 126.932,164.471 C128.140673,164.144332 129.479993,163.981 130.95,163.981 C132.060672,163.981 133.171328,164.087166 134.282,164.2995 C135.392672,164.511834 136.388996,164.911997 137.271,165.5 C138.153004,166.088003 138.871664,166.912828 139.427,167.9745 C139.982336,169.036172 140.26,170.416325 140.26,172.115 L140.26,185.541 C140.26,186.78234 140.864327,187.403 142.073,187.403 C142.432335,187.403 142.758999,187.337667 143.053,187.207 L143.053,189.804 C142.693665,189.869334 142.375168,189.918333 142.0975,189.951 C141.819832,189.983667 141.468669,190 141.044,190 C140.259996,190 139.631169,189.893834 139.1575,189.6815 C138.683831,189.469166 138.316335,189.167002 138.055,188.775 C137.793665,188.382998 137.622167,187.917503 137.5405,187.3785 C137.458833,186.839497 137.418,186.243337 137.418,185.59 L137.32,185.59 C136.764664,186.406671 136.20117,187.133497 135.6295,187.7705 C135.05783,188.407503 134.420837,188.938331 133.7185,189.363 C133.016163,189.787669 132.215838,190.114332 131.3175,190.343 C130.419162,190.571668 129.34934,190.686 128.108,190.686 C126.931994,190.686 125.829505,190.547168 124.8005,190.2695 C123.771495,189.991832 122.873171,189.550836 122.1055,188.9465 C121.337829,188.342164 120.733502,187.574505 120.2925,186.6435 C119.851498,185.712495 119.631,184.610006 119.631,183.336 C119.631,181.571991 120.022996,180.191838 120.807,179.1955 C121.591004,178.199162 122.62816,177.439669 123.9185,176.917 C125.20884,176.394331 126.662492,176.026834 128.2795,175.8145 C129.896508,175.602166 131.537992,175.398001 133.204,175.202 C133.857337,175.136666 134.428998,175.055 134.919,174.957 C135.409002,174.859 135.817332,174.687501 136.144,174.4425 C136.470668,174.197499 136.723832,173.862669 136.9035,173.438 C137.083168,173.013331 137.173,172.458003 137.173,171.772 C137.173,170.726661 137.001502,169.86917 136.6585,169.1995 C136.315498,168.52983 135.841836,167.999002 135.2375,167.607 C134.633164,167.214998 133.930837,166.945501 133.1305,166.7985 C132.330163,166.651499 131.472671,166.578 130.558,166.578 C128.59799,166.578 126.99734,167.043495 125.756,167.9745 C124.51466,168.905505 123.861334,170.39999 123.796,172.458 L120.709,172.458 Z M137.173,176.182 L137.075,176.182 C136.878999,176.541335 136.503336,176.802666 135.948,176.966 C135.392664,177.129334 134.902669,177.243666 134.478,177.309 C133.171327,177.537668 131.82384,177.741832 130.4355,177.9215 C129.04716,178.101168 127.781339,178.370665 126.638,178.73 C125.494661,179.089335 124.555504,179.60383 123.8205,180.2735 C123.085496,180.94317 122.718,181.89866 122.718,183.14 C122.718,183.924004 122.873165,184.618164 123.1835,185.2225 C123.493835,185.826836 123.910331,186.349498 124.433,186.7905 C124.955669,187.231502 125.559997,187.566332 126.246,187.795 C126.932003,188.023668 127.63433,188.138 128.353,188.138 C129.529006,188.138 130.655995,187.958335 131.734,187.599 C132.812005,187.239665 133.751163,186.717003 134.5515,186.031 C135.351837,185.344997 135.988831,184.512005 136.4625,183.532 C136.936169,182.551995 137.173,181.44134 137.173,180.2 L137.173,176.182 Z M161.575,172.115 C161.542333,171.167662 161.346335,170.342837 160.987,169.6405 C160.627665,168.938163 160.145836,168.358336 159.5415,167.901 C158.937164,167.443664 158.243004,167.108834 157.459,166.8965 C156.674996,166.684166 155.842004,166.578 154.96,166.578 C154.273997,166.578 153.579837,166.651499 152.8775,166.7985 C152.175163,166.945501 151.530003,167.190498 150.942,167.5335 C150.353997,167.876502 149.880335,168.325664 149.521,168.881 C149.161665,169.436336 148.982,170.122329 148.982,170.939 C148.982,171.625003 149.153498,172.204831 149.4965,172.6785 C149.839502,173.152169 150.272331,173.552332 150.795,173.879 C151.317669,174.205668 151.88933,174.475166 152.51,174.6875 C153.13067,174.899834 153.702331,175.071333 154.225,175.202 L158.341,176.133 C159.223004,176.263667 160.096829,176.500498 160.9625,176.8435 C161.828171,177.186502 162.59583,177.635664 163.2655,178.191 C163.93517,178.746336 164.482331,179.432329 164.907,180.249 C165.331669,181.065671 165.544,182.029328 165.544,183.14 C165.544,184.512007 165.23367,185.679829 164.613,186.6435 C163.99233,187.607171 163.200171,188.391164 162.2365,188.9955 C161.272829,189.599836 160.186673,190.032665 158.978,190.294 C157.769327,190.555335 156.577006,190.686 155.401,190.686 C152.428318,190.686 150.019176,189.983674 148.1735,188.579 C146.327824,187.174326 145.274335,184.920349 145.013,181.817 L148.1,181.817 C148.230667,183.907677 148.99016,185.483828 150.3785,186.5455 C151.76684,187.607172 153.48999,188.138 155.548,188.138 C156.299337,188.138 157.075163,188.056334 157.8755,187.893 C158.675837,187.729666 159.418997,187.452002 160.105,187.06 C160.791003,186.667998 161.354498,186.169836 161.7955,185.5655 C162.236502,184.961164 162.457,184.218004 162.457,183.336 C162.457,182.584663 162.301835,181.955836 161.9915,181.4495 C161.681165,180.943164 161.264669,180.518502 160.742,180.1755 C160.219331,179.832498 159.62317,179.546668 158.9535,179.318 C158.28383,179.089332 157.606003,178.893334 156.92,178.73 L152.951,177.848 C151.938328,177.586665 151.007338,177.284502 150.158,176.9415 C149.308662,176.598498 148.565503,176.173836 147.9285,175.6675 C147.291497,175.161164 146.793335,174.540504 146.434,173.8055 C146.074665,173.070496 145.895,172.164005 145.895,171.086 C145.895,169.811994 146.18083,168.717671 146.7525,167.803 C147.32417,166.888329 148.067329,166.153336 148.982,165.598 C149.896671,165.042664 150.917494,164.634335 152.0445,164.373 C153.171506,164.111665 154.290328,163.981 155.401,163.981 C156.675006,163.981 157.859161,164.144332 158.9535,164.471 C160.047839,164.797668 161.011496,165.303997 161.8445,165.99 C162.677504,166.676003 163.338998,167.525328 163.829,168.538 C164.319002,169.550672 164.596666,170.742993 164.662,172.115 L161.575,172.115 Z M167.161,164.716 L170.444,164.716 L178.774,186.276 L186.565,164.716 L189.652,164.716 L178.676,193.822 C178.218664,194.900005 177.794002,195.790163 177.402,196.4925 C177.009998,197.194837 176.577169,197.750165 176.1035,198.1585 C175.629831,198.566835 175.074503,198.860832 174.4375,199.0405 C173.800497,199.220168 172.992005,199.31 172.012,199.31 C171.39133,199.277333 170.909502,199.252833 170.5665,199.2365 C170.223498,199.220167 169.921335,199.163 169.66,199.065 L169.66,196.468 C170.019335,196.533334 170.370498,196.5905 170.7135,196.6395 C171.056502,196.6885 171.407665,196.713 171.767,196.713 C172.453003,196.713 173.016498,196.615001 173.4575,196.419 C173.898502,196.222999 174.282332,195.953502 174.609,195.6105 C174.935668,195.267498 175.213332,194.851002 175.442,194.361 C175.670668,193.870998 175.915665,193.332003 176.177,192.744 L177.255,189.902 L167.161,164.716 Z M189.554,155.014 L217.239,155.014 L217.239,157.856 L205.038,157.856 L205.038,190 L201.706,190 L201.706,157.856 L189.554,157.856 L189.554,155.014 Z M215.426,164.716 L218.268,164.716 L218.268,170.645 L218.366,170.645 C219.150004,168.58699 220.366825,167.002672 222.0165,165.892 C223.666175,164.781328 225.634322,164.275 227.921,164.373 L227.921,167.46 C226.516326,167.394666 225.242339,167.582498 224.099,168.0235 C222.955661,168.464502 221.967504,169.093329 221.1345,169.91 C220.301496,170.726671 219.656336,171.698494 219.199,172.8255 C218.741664,173.952506 218.513,175.18566 218.513,176.525 L218.513,190 L215.426,190 L215.426,164.716 Z M230.567,172.458 C230.665,170.987993 230.975331,169.714005 231.498,168.636 C232.020669,167.557995 232.731162,166.676003 233.6295,165.99 C234.527838,165.303997 235.581327,164.797668 236.79,164.471 C237.998673,164.144332 239.337993,163.981 240.808,163.981 C241.918672,163.981 243.029328,164.087166 244.14,164.2995 C245.250672,164.511834 246.246996,164.911997 247.129,165.5 C248.011004,166.088003 248.729664,166.912828 249.285,167.9745 C249.840336,169.036172 250.118,170.416325 250.118,172.115 L250.118,185.541 C250.118,186.78234 250.722327,187.403 251.931,187.403 C252.290335,187.403 252.616999,187.337667 252.911,187.207 L252.911,189.804 C252.551665,189.869334 252.233168,189.918333 251.9555,189.951 C251.677832,189.983667 251.326669,190 250.902,190 C250.117996,190 249.489169,189.893834 249.0155,189.6815 C248.541831,189.469166 248.174335,189.167002 247.913,188.775 C247.651665,188.382998 247.480167,187.917503 247.3985,187.3785 C247.316833,186.839497 247.276,186.243337 247.276,185.59 L247.178,185.59 C246.622664,186.406671 246.05917,187.133497 245.4875,187.7705 C244.91583,188.407503 244.278837,188.938331 243.5765,189.363 C242.874163,189.787669 242.073838,190.114332 241.1755,190.343 C240.277162,190.571668 239.20734,190.686 237.966,190.686 C236.789994,190.686 235.687505,190.547168 234.6585,190.2695 C233.629495,189.991832 232.731171,189.550836 231.9635,188.9465 C231.195829,188.342164 230.591502,187.574505 230.1505,186.6435 C229.709498,185.712495 229.489,184.610006 229.489,183.336 C229.489,181.571991 229.880996,180.191838 230.665,179.1955 C231.449004,178.199162 232.48616,177.439669 233.7765,176.917 C235.06684,176.394331 236.520492,176.026834 238.1375,175.8145 C239.754508,175.602166 241.395992,175.398001 243.062,175.202 C243.715337,175.136666 244.286998,175.055 244.777,174.957 C245.267002,174.859 245.675332,174.687501 246.002,174.4425 C246.328668,174.197499 246.581832,173.862669 246.7615,173.438 C246.941168,173.013331 247.031,172.458003 247.031,171.772 C247.031,170.726661 246.859502,169.86917 246.5165,169.1995 C246.173498,168.52983 245.699836,167.999002 245.0955,167.607 C244.491164,167.214998 243.788837,166.945501 242.9885,166.7985 C242.188163,166.651499 241.330671,166.578 240.416,166.578 C238.45599,166.578 236.85534,167.043495 235.614,167.9745 C234.37266,168.905505 233.719334,170.39999 233.654,172.458 L230.567,172.458 Z M247.031,176.182 L246.933,176.182 C246.736999,176.541335 246.361336,176.802666 245.806,176.966 C245.250664,177.129334 244.760669,177.243666 244.336,177.309 C243.029327,177.537668 241.68184,177.741832 240.2935,177.9215 C238.90516,178.101168 237.639339,178.370665 236.496,178.73 C235.352661,179.089335 234.413504,179.60383 233.6785,180.2735 C232.943496,180.94317 232.576,181.89866 232.576,183.14 C232.576,183.924004 232.731165,184.618164 233.0415,185.2225 C233.351835,185.826836 233.768331,186.349498 234.291,186.7905 C234.813669,187.231502 235.417997,187.566332 236.104,187.795 C236.790003,188.023668 237.49233,188.138 238.211,188.138 C239.387006,188.138 240.513995,187.958335 241.592,187.599 C242.670005,187.239665 243.609163,186.717003 244.4095,186.031 C245.209837,185.344997 245.846831,184.512005 246.3205,183.532 C246.794169,182.551995 247.031,181.44134 247.031,180.2 L247.031,176.182 Z M256.243,164.716 L259.33,164.716 L259.33,169.077 L259.428,169.077 C260.016003,167.541659 261.061326,166.308505 262.564,165.3775 C264.066674,164.446495 265.716324,163.981 267.513,163.981 C269.277009,163.981 270.755161,164.209664 271.9475,164.667 C273.139839,165.124336 274.09533,165.769496 274.814,166.6025 C275.53267,167.435504 276.038999,168.456327 276.333,169.665 C276.627001,170.873673 276.774,172.229326 276.774,173.732 L276.774,190 L273.687,190 L273.687,174.222 C273.687,173.143995 273.589001,172.139505 273.393,171.2085 C273.196999,170.277495 272.854002,169.469003 272.364,168.783 C271.873998,168.096997 271.212504,167.558002 270.3795,167.166 C269.546496,166.773998 268.50934,166.578 267.268,166.578 C266.02666,166.578 264.924171,166.798498 263.9605,167.2395 C262.996829,167.680502 262.18017,168.284829 261.5105,169.0525 C260.84083,169.820171 260.318169,170.734828 259.9425,171.7965 C259.566831,172.858172 259.362667,174.00966 259.33,175.251 L259.33,190 L256.243,190 L256.243,164.716 Z M297.746,172.115 C297.713333,171.167662 297.517335,170.342837 297.158,169.6405 C296.798665,168.938163 296.316836,168.358336 295.7125,167.901 C295.108164,167.443664 294.414004,167.108834 293.63,166.8965 C292.845996,166.684166 292.013004,166.578 291.131,166.578 C290.444997,166.578 289.750837,166.651499 289.0485,166.7985 C288.346163,166.945501 287.701003,167.190498 287.113,167.5335 C286.524997,167.876502 286.051335,168.325664 285.692,168.881 C285.332665,169.436336 285.153,170.122329 285.153,170.939 C285.153,171.625003 285.324498,172.204831 285.6675,172.6785 C286.010502,173.152169 286.443331,173.552332 286.966,173.879 C287.488669,174.205668 288.06033,174.475166 288.681,174.6875 C289.30167,174.899834 289.873331,175.071333 290.396,175.202 L294.512,176.133 C295.394004,176.263667 296.267829,176.500498 297.1335,176.8435 C297.999171,177.186502 298.76683,177.635664 299.4365,178.191 C300.10617,178.746336 300.653331,179.432329 301.078,180.249 C301.502669,181.065671 301.715,182.029328 301.715,183.14 C301.715,184.512007 301.40467,185.679829 300.784,186.6435 C300.16333,187.607171 299.371171,188.391164 298.4075,188.9955 C297.443829,189.599836 296.357673,190.032665 295.149,190.294 C293.940327,190.555335 292.748006,190.686 291.572,190.686 C288.599318,190.686 286.190176,189.983674 284.3445,188.579 C282.498824,187.174326 281.445335,184.920349 281.184,181.817 L284.271,181.817 C284.401667,183.907677 285.16116,185.483828 286.5495,186.5455 C287.93784,187.607172 289.66099,188.138 291.719,188.138 C292.470337,188.138 293.246163,188.056334 294.0465,187.893 C294.846837,187.729666 295.589997,187.452002 296.276,187.06 C296.962003,186.667998 297.525498,186.169836 297.9665,185.5655 C298.407502,184.961164 298.628,184.218004 298.628,183.336 C298.628,182.584663 298.472835,181.955836 298.1625,181.4495 C297.852165,180.943164 297.435669,180.518502 296.913,180.1755 C296.390331,179.832498 295.79417,179.546668 295.1245,179.318 C294.45483,179.089332 293.777003,178.893334 293.091,178.73 L289.122,177.848 C288.109328,177.586665 287.178338,177.284502 286.329,176.9415 C285.479662,176.598498 284.736503,176.173836 284.0995,175.6675 C283.462497,175.161164 282.964335,174.540504 282.605,173.8055 C282.245665,173.070496 282.066,172.164005 282.066,171.086 C282.066,169.811994 282.35183,168.717671 282.9235,167.803 C283.49517,166.888329 284.238329,166.153336 285.153,165.598 C286.067671,165.042664 287.088494,164.634335 288.2155,164.373 C289.342506,164.111665 290.461328,163.981 291.572,163.981 C292.846006,163.981 294.030161,164.144332 295.1245,164.471 C296.218839,164.797668 297.182496,165.303997 298.0155,165.99 C298.848504,166.676003 299.509998,167.525328 300,168.538 C300.490002,169.550672 300.767666,170.742993 300.833,172.115 L297.746,172.115 Z M306.223,155.014 L309.31,155.014 L309.31,159.963 L306.223,159.963 L306.223,155.014 Z M306.223,164.716 L309.31,164.716 L309.31,190 L306.223,190 L306.223,164.716 Z M320.139,164.716 L325.284,164.716 L325.284,167.313 L320.139,167.313 L320.139,184.365 C320.139,185.377672 320.277832,186.16983 320.5555,186.7415 C320.833168,187.31317 321.527328,187.631666 322.638,187.697 C323.520004,187.697 324.401996,187.648 325.284,187.55 L325.284,190.147 C324.826664,190.147 324.369336,190.163333 323.912,190.196 C323.454664,190.228667 322.997336,190.245 322.54,190.245 C320.48199,190.245 319.044671,189.844837 318.228,189.0445 C317.411329,188.244163 317.019333,186.766011 317.052,184.61 L317.052,167.313 L312.642,167.313 L312.642,164.716 L317.052,164.716 L317.052,157.121 L320.139,157.121 L320.139,164.716 Z M329.792,155.014 L332.879,155.014 L332.879,159.963 L329.792,159.963 L329.792,155.014 Z M329.792,164.716 L332.879,164.716 L332.879,190 L329.792,190 L329.792,164.716 Z M349.49,166.578 C348.019993,166.578 346.729672,166.88833 345.619,167.509 C344.508328,168.12967 343.585504,168.946328 342.8505,169.959 C342.115496,170.971672 341.560169,172.12316 341.1845,173.4135 C340.808831,174.70384 340.621,176.01866 340.621,177.358 C340.621,178.69734 340.808831,180.01216 341.1845,181.3025 C341.560169,182.59284 342.115496,183.744328 342.8505,184.757 C343.585504,185.769672 344.508328,186.58633 345.619,187.207 C346.729672,187.82767 348.019993,188.138 349.49,188.138 C350.960007,188.138 352.250328,187.82767 353.361,187.207 C354.471672,186.58633 355.394496,185.769672 356.1295,184.757 C356.864504,183.744328 357.419831,182.59284 357.7955,181.3025 C358.171169,180.01216 358.359,178.69734 358.359,177.358 C358.359,176.01866 358.171169,174.70384 357.7955,173.4135 C357.419831,172.12316 356.864504,170.971672 356.1295,169.959 C355.394496,168.946328 354.471672,168.12967 353.361,167.509 C352.250328,166.88833 350.960007,166.578 349.49,166.578 Z M349.49,163.981 C351.417343,163.981 353.124159,164.34033 354.6105,165.059 C356.096841,165.77767 357.346328,166.741327 358.359,167.95 C359.371672,169.158673 360.139331,170.571492 360.662,172.1885 C361.184669,173.805508 361.446,175.528658 361.446,177.358 C361.446,179.187342 361.184669,180.910492 360.662,182.5275 C360.139331,184.144508 359.371672,185.557327 358.359,186.766 C357.346328,187.974673 356.096841,188.930163 354.6105,189.6325 C353.124159,190.334837 351.417343,190.686 349.49,190.686 C347.562657,190.686 345.855841,190.334837 344.3695,189.6325 C342.883159,188.930163 341.633672,187.974673 340.621,186.766 C339.608328,185.557327 338.840669,184.144508 338.318,182.5275 C337.795331,180.910492 337.534,179.187342 337.534,177.358 C337.534,175.528658 337.795331,173.805508 338.318,172.1885 C338.840669,170.571492 339.608328,169.158673 340.621,167.95 C341.633672,166.741327 342.883159,165.77767 344.3695,165.059 C345.855841,164.34033 347.562657,163.981 349.49,163.981 Z M366.003,164.716 L369.09,164.716 L369.09,169.077 L369.188,169.077 C369.776003,167.541659 370.821326,166.308505 372.324,165.3775 C373.826674,164.446495 375.476324,163.981 377.273,163.981 C379.037009,163.981 380.515161,164.209664 381.7075,164.667 C382.899839,165.124336 383.85533,165.769496 384.574,166.6025 C385.29267,167.435504 385.798999,168.456327 386.093,169.665 C386.387001,170.873673 386.534,172.229326 386.534,173.732 L386.534,190 L383.447,190 L383.447,174.222 C383.447,173.143995 383.349001,172.139505 383.153,171.2085 C382.956999,170.277495 382.614002,169.469003 382.124,168.783 C381.633998,168.096997 380.972504,167.558002 380.1395,167.166 C379.306496,166.773998 378.26934,166.578 377.028,166.578 C375.78666,166.578 374.684171,166.798498 373.7205,167.2395 C372.756829,167.680502 371.94017,168.284829 371.2705,169.0525 C370.60083,169.820171 370.078169,170.734828 369.7025,171.7965 C369.326831,172.858172 369.122667,174.00966 369.09,175.251 L369.09,190 L366.003,190 L366.003,164.716 Z M407.506,172.115 C407.473333,171.167662 407.277335,170.342837 406.918,169.6405 C406.558665,168.938163 406.076836,168.358336 405.4725,167.901 C404.868164,167.443664 404.174004,167.108834 403.39,166.8965 C402.605996,166.684166 401.773004,166.578 400.891,166.578 C400.204997,166.578 399.510837,166.651499 398.8085,166.7985 C398.106163,166.945501 397.461003,167.190498 396.873,167.5335 C396.284997,167.876502 395.811335,168.325664 395.452,168.881 C395.092665,169.436336 394.913,170.122329 394.913,170.939 C394.913,171.625003 395.084498,172.204831 395.4275,172.6785 C395.770502,173.152169 396.203331,173.552332 396.726,173.879 C397.248669,174.205668 397.82033,174.475166 398.441,174.6875 C399.06167,174.899834 399.633331,175.071333 400.156,175.202 L404.272,176.133 C405.154004,176.263667 406.027829,176.500498 406.8935,176.8435 C407.759171,177.186502 408.52683,177.635664 409.1965,178.191 C409.86617,178.746336 410.413331,179.432329 410.838,180.249 C411.262669,181.065671 411.475,182.029328 411.475,183.14 C411.475,184.512007 411.16467,185.679829 410.544,186.6435 C409.92333,187.607171 409.131171,188.391164 408.1675,188.9955 C407.203829,189.599836 406.117673,190.032665 404.909,190.294 C403.700327,190.555335 402.508006,190.686 401.332,190.686 C398.359318,190.686 395.950176,189.983674 394.1045,188.579 C392.258824,187.174326 391.205335,184.920349 390.944,181.817 L394.031,181.817 C394.161667,183.907677 394.92116,185.483828 396.3095,186.5455 C397.69784,187.607172 399.42099,188.138 401.479,188.138 C402.230337,188.138 403.006163,188.056334 403.8065,187.893 C404.606837,187.729666 405.349997,187.452002 406.036,187.06 C406.722003,186.667998 407.285498,186.169836 407.7265,185.5655 C408.167502,184.961164 408.388,184.218004 408.388,183.336 C408.388,182.584663 408.232835,181.955836 407.9225,181.4495 C407.612165,180.943164 407.195669,180.518502 406.673,180.1755 C406.150331,179.832498 405.55417,179.546668 404.8845,179.318 C404.21483,179.089332 403.537003,178.893334 402.851,178.73 L398.882,177.848 C397.869328,177.586665 396.938338,177.284502 396.089,176.9415 C395.239662,176.598498 394.496503,176.173836 393.8595,175.6675 C393.222497,175.161164 392.724335,174.540504 392.365,173.8055 C392.005665,173.070496 391.826,172.164005 391.826,171.086 C391.826,169.811994 392.11183,168.717671 392.6835,167.803 C393.25517,166.888329 393.998329,166.153336 394.913,165.598 C395.827671,165.042664 396.848494,164.634335 397.9755,164.373 C399.102506,164.111665 400.221328,163.981 401.332,163.981 C402.606006,163.981 403.790161,164.144332 404.8845,164.471 C405.978839,164.797668 406.942496,165.303997 407.7755,165.99 C408.608504,166.676003 409.269998,167.525328 409.76,168.538 C410.250002,169.550672 410.527666,170.742993 410.593,172.115 L407.506,172.115 Z" id="Heading" fill="#000000"></path>
                    <g id="Logos" transform="translate(195.000000, 0.000000)">
                        <g id="Logo">
                            <mask id="mask-3" fill="white">
                                <use xlink:href="#path-2"></use>
                            </mask>
                            <use id="Combined-Shape" fill="url(#linearGradient-1)" xlink:href="#path-2"></use>
                        </g>
                    </g>
                </g>
            </g>
        </g>
    </g>
</svg>